<svg width="183" height="124" viewBox="0 0 183 124" fill="none" xmlns="http://www.w3.org/2000/svg">
<g clip-path="url(#clip0_218_616)">
<path d="M129 113.516C111.345 132.659 66.3914 120.458 47.3976 102.941C28.4038 85.4236 27.3182 55.7048 44.9728 36.5622C62.6274 17.4196 104.235 3.20066 123.229 20.7181C142.223 38.2355 146.655 94.3738 129 113.516Z" fill="#FFEFEF"/>
<path d="M127 71.5482V70.1434H120.742C119.083 67.0377 116.928 64.181 114.323 61.6814C108.02 55.6349 99.7374 52.3049 91 52.3049C78.16 52.3049 66.9364 59.4928 61.2547 70.1434H55V71.5482H60.5473C60.3072 72.054 60.0787 72.5664 59.8636 73.0859H55V74.4908H59.3191C58.2671 77.394 57.6026 80.4871 57.3867 83.7102C56.9028 83.4837 56.4411 83.1913 56.0151 82.8321L55.1093 83.9062C57.7907 86.1674 61.6198 86.2856 64.4208 84.2601C67.0676 86.1741 70.6325 86.1741 73.2794 84.2601C75.9265 86.1743 79.4912 86.1741 82.1379 84.2601C84.785 86.1743 88.3498 86.1741 90.9966 84.2601C93.6435 86.1741 97.2083 86.1741 99.8552 84.2601C102.502 86.1741 106.067 86.1741 108.714 84.2601C110.037 85.2171 111.59 85.6955 113.143 85.6955C114.696 85.6955 116.249 85.2171 117.573 84.2602C120.373 86.2854 124.202 86.1672 126.884 83.9062L125.978 82.8321C125.555 83.1893 125.096 83.4801 124.615 83.7059C124.402 80.5246 123.744 77.4285 122.679 74.4908H127V73.0859H122.133C121.918 72.5677 121.691 72.0551 121.45 71.5482H127ZM117.573 82.4502L117.12 82.832C114.816 84.7752 111.471 84.7752 109.167 82.832L108.714 82.4502L108.261 82.832C105.957 84.7752 102.612 84.7752 100.309 82.832L99.8557 82.4502L99.4029 82.832C97.0989 84.7752 93.754 84.7752 91.45 82.832L90.9972 82.4502L90.5444 82.832C88.2406 84.7752 84.8958 84.7752 82.5915 82.832L82.1387 82.4502L81.6859 82.832C79.3821 84.7752 76.0371 84.7752 73.7332 82.832L73.2803 82.4502L72.8275 82.832C70.5236 84.7752 67.1786 84.7752 64.8747 82.832L64.4218 82.4502L63.969 82.832C63.6717 83.0827 63.3568 83.3004 63.0293 83.4865C63.307 80.3468 64.1028 77.3136 65.3709 74.4906H116.629C117.898 77.3145 118.695 80.3488 118.972 83.4896C118.642 83.3029 118.326 83.0841 118.026 82.8318L117.573 82.4502ZM110.523 65.8116C111.899 67.1432 113.123 68.5949 114.185 70.1434H110.523V65.8116ZM109.118 70.1434H105.818V62.1354C106.968 62.8517 108.07 63.655 109.118 64.5412V70.1434ZM104.413 70.1434H101.113V59.7889C102.244 60.225 103.346 60.734 104.413 61.3153V70.1434ZM99.7085 70.1434H96.4076V58.4335C97.5275 58.6516 98.6294 58.9378 99.7085 59.2889V70.1434ZM95.0026 70.1434H91.7024V57.9223C92.8138 57.9496 93.9154 58.0419 95.0026 58.1969V70.1434ZM90.2977 70.1434H86.9976V58.1967C88.0846 58.0419 89.1862 57.9495 90.2977 57.9223V70.1434ZM85.5927 70.1434H82.2929V59.2875C83.3715 58.9368 84.4731 58.6508 85.5927 58.4329V70.1434ZM80.8882 70.1434H77.5884V61.3139C78.6551 60.7328 79.7573 60.2234 80.8882 59.7873V70.1434ZM76.1835 70.1434H72.8821V64.5404C73.9299 63.6536 75.0331 62.85 76.1835 62.1334V70.1434ZM71.4773 70.1434H67.8144C68.8766 68.5951 70.1001 67.1426 71.4773 65.8105V70.1434ZM66.9089 71.5482H115.09C115.393 72.0521 115.679 72.565 115.949 73.0859H66.051C66.3209 72.5652 66.6059 72.0519 66.9089 71.5482ZM120.425 84.0838C119.953 76.7145 116.769 69.858 111.416 64.7197C105.899 59.4245 98.6488 56.5085 91 56.5085C83.3245 56.5085 76.0559 59.442 70.5328 64.7687C65.2079 69.9044 62.0447 76.7379 61.5741 84.0823C60.6556 84.3267 59.6936 84.3534 58.7651 84.1645C59.7204 67.078 73.8573 53.7096 91 53.7096C99.3731 53.7096 107.31 56.9007 113.35 62.6949C119.278 68.3819 122.777 75.9932 123.234 84.1635C122.306 84.3533 121.344 84.3275 120.425 84.0838Z" fill="#F41C31"/>
</g>
<defs>
<clipPath id="clip0_218_616">
<rect width="183" height="124" fill="white"/>
</clipPath>
</defs>
</svg>
