<svg width="183" height="220" viewBox="0 0 183 220" fill="none" xmlns="http://www.w3.org/2000/svg">
<rect width="183" height="220" rx="8" fill="white"/>
<path d="M129 113.5C111.345 132.643 66.3913 120.442 47.3975 102.925C28.4037 85.4072 27.3181 55.6884 44.9727 36.5459C62.6273 17.4033 104.235 3.1843 123.229 20.7017C142.223 38.2191 146.655 94.3574 129 113.5Z" fill="#FFEFEF"/>
<path d="M35.87 160.364H28.6143V172H30.37V161.875H35.87V160.364ZM38.4709 169.619V163.273H36.8061V172H38.6527L42.4822 165.648V172H44.147V163.273H42.3175L38.4709 169.619ZM45.5788 174.517H47.2607V172H53.3459V174.517H55.005V170.528H53.6641V163.273H47.7322L47.4595 166.528C47.2777 168.727 47.0107 169.875 46.2891 170.528H45.5788V174.517ZM48.1072 170.528C48.6868 169.716 48.9027 168.364 49.0732 166.528L49.255 164.727H52.005V170.528H48.1072ZM56.6655 175.273H58.3643V170.642H58.4666C58.7734 171.199 59.3984 172.17 60.9893 172.17C63.103 172.17 64.6371 170.477 64.6371 167.653C64.6371 164.824 63.0803 163.159 60.9723 163.159C59.353 163.159 58.7678 164.148 58.4666 164.688H58.3246V163.273H56.6655V175.273ZM58.3303 167.636C58.3303 165.812 59.1257 164.602 60.6087 164.602C62.1484 164.602 62.9212 165.903 62.9212 167.636C62.9212 169.386 62.1257 170.722 60.6087 170.722C59.1484 170.722 58.3303 169.472 58.3303 167.636ZM70.2166 172.176C72.6768 172.176 74.2848 170.375 74.2848 167.676C74.2848 164.96 72.6768 163.159 70.2166 163.159C67.7564 163.159 66.1484 164.96 66.1484 167.676C66.1484 170.375 67.7564 172.176 70.2166 172.176ZM70.2223 170.75C68.6143 170.75 67.8643 169.347 67.8643 167.67C67.8643 166 68.6143 164.58 70.2223 164.58C71.8189 164.58 72.5689 166 72.5689 167.67C72.5689 169.347 71.8189 170.75 70.2223 170.75ZM78.7209 172.193C80.1641 172.193 80.9766 171.46 81.3004 170.807H81.3686V172H83.0277V166.205C83.0277 163.665 81.0277 163.159 79.6413 163.159C78.0618 163.159 76.6072 163.795 76.0391 165.386L77.6357 165.75C77.8857 165.131 78.522 164.534 79.6641 164.534C80.7607 164.534 81.3232 165.108 81.3232 166.097V166.136C81.3232 166.756 80.6868 166.744 79.1186 166.926C77.4652 167.119 75.772 167.551 75.772 169.534C75.772 171.25 77.0618 172.193 78.7209 172.193ZM79.0902 170.83C78.13 170.83 77.4368 170.398 77.4368 169.557C77.4368 168.648 78.2436 168.324 79.2266 168.193C79.7777 168.119 81.0845 167.972 81.3288 167.727V168.852C81.3288 169.886 80.505 170.83 79.0902 170.83ZM85.2905 172H86.9893V168.511H88.0916L90.7223 172H92.8303L89.4098 167.517L92.7905 163.273H90.6882L87.8075 166.932H86.9893V163.273H85.2905V172ZM93.6612 164.739H96.5192V172H98.1783V164.739H101.025V163.273H93.6612V164.739ZM104.487 169.619V163.273H102.822V172H104.668L108.498 165.648V172H110.163V163.273H108.333L104.487 169.619ZM112.447 172H116.617C118.526 172 119.646 171.034 119.646 169.648C119.646 168.352 118.651 167.557 117.487 167.42C118.56 167.216 119.271 166.625 119.271 165.602C119.271 164.17 118.032 163.273 116.066 163.273H112.447V172ZM114.043 170.58V168.153H116.617C117.458 168.153 117.964 168.648 117.964 169.46C117.964 170.153 117.458 170.58 116.617 170.58H114.043ZM114.043 166.909V164.71H116.066C117.032 164.71 117.617 165.114 117.617 165.784C117.617 166.483 117.038 166.909 116.083 166.909H114.043ZM124.049 172.193C125.492 172.193 126.305 171.46 126.629 170.807H126.697V172H128.356V166.205C128.356 163.665 126.356 163.159 124.969 163.159C123.39 163.159 121.935 163.795 121.367 165.386L122.964 165.75C123.214 165.131 123.85 164.534 124.992 164.534C126.089 164.534 126.651 165.108 126.651 166.097V166.136C126.651 166.756 126.015 166.744 124.447 166.926C122.793 167.119 121.1 167.551 121.1 169.534C121.1 171.25 122.39 172.193 124.049 172.193ZM124.418 170.83C123.458 170.83 122.765 170.398 122.765 169.557C122.765 168.648 123.572 168.324 124.555 168.193C125.106 168.119 126.413 167.972 126.657 167.727V168.852C126.657 169.886 125.833 170.83 124.418 170.83ZM129.536 164.739H132.394V172H134.053V164.739H136.9V163.273H129.536V164.739ZM141.967 172.176C144.427 172.176 146.035 170.375 146.035 167.676C146.035 164.96 144.427 163.159 141.967 163.159C139.506 163.159 137.898 164.96 137.898 167.676C137.898 170.375 139.506 172.176 141.967 172.176ZM141.972 170.75C140.364 170.75 139.614 169.347 139.614 167.67C139.614 166 140.364 164.58 141.972 164.58C143.569 164.58 144.319 166 144.319 167.67C144.319 169.347 143.569 170.75 141.972 170.75ZM147.931 175.273H149.63V170.642H149.732C150.039 171.199 150.664 172.17 152.255 172.17C154.369 172.17 155.903 170.477 155.903 167.653C155.903 164.824 154.346 163.159 152.238 163.159C150.619 163.159 150.033 164.148 149.732 164.688H149.59V163.273H147.931V175.273ZM149.596 167.636C149.596 165.812 150.391 164.602 151.874 164.602C153.414 164.602 154.187 165.903 154.187 167.636C154.187 169.386 153.391 170.722 151.874 170.722C150.414 170.722 149.596 169.472 149.596 167.636Z" fill="#1D2936"/>
<g clip-path="url(#clip0_105_360)">
<path d="M126.995 87.3625C126.839 84.4755 122.171 84.103 117.229 83.7087C115.389 83.562 113.652 83.4233 112.273 83.1664C111.687 83.0573 109.924 82.9486 110.254 81.9856C110.522 81.2051 112.136 81.2064 112.782 81.0953C114.54 80.793 116.724 80.3288 117.166 78.2973C117.705 75.8198 115.11 74.7156 113.152 74.2275C110.897 73.6656 107.601 73.3615 103.347 73.3216C103.918 70.4065 103.428 67.3598 101.876 64.6703L91.9131 47.4143C91.519 46.732 90.4832 46.7269 90.0864 47.4143L87.6116 51.7005C86.9344 52.8733 88.7604 53.9295 89.4384 52.7552L90.9999 50.0508L100.049 65.7248C101.938 68.9963 101.938 72.9023 100.049 76.1737C98.1604 79.4454 94.7774 81.3984 90.9999 81.3984C87.2223 81.3984 83.8394 79.4452 81.9505 76.1737C80.0618 72.9023 80.0618 68.9963 81.9505 65.7248L86.5156 57.8176C87.1929 56.6448 85.3669 55.5885 84.6889 56.763L80.1238 64.6701C78.5709 67.3598 78.081 70.4063 78.6528 73.3215C74.3989 73.3614 71.1027 73.6653 68.8479 74.2274C66.887 74.716 64.2976 75.8195 64.8339 78.2972C65.2738 80.3288 67.4618 80.7932 69.2172 81.0952C69.7771 81.1915 71.7326 81.3117 71.7992 82.1894C71.8541 82.9148 70.2117 83.0759 69.7268 83.1663C68.348 83.4232 66.6104 83.5619 64.7708 83.7085C59.8285 84.103 55.1605 84.4753 55.0041 87.3624C54.9645 88.095 55.2106 88.7724 55.7157 89.3217C57.22 90.9571 60.8835 91.3844 66.3069 91.5438C67.807 91.5878 69.3523 91.5731 70.8467 91.5587C73.378 91.5345 75.7688 91.5118 77.4884 91.7788C78.079 91.8706 79.8614 92.1077 79.5893 93.0592C79.3971 93.7314 77.8305 93.8841 77.3392 93.9912C75.5984 94.3709 72.9678 94.945 72.9678 97.715C72.9678 99.6207 74.9919 100.992 79.1558 101.906C82.3451 102.607 86.6027 102.993 91.1443 102.993C95.6459 102.993 99.8403 102.611 102.955 101.918C107.044 101.007 109.032 99.6328 109.032 97.715C109.032 94.945 106.401 94.3709 104.66 93.9912C104.146 93.879 102.592 93.7322 102.414 93.0406C102.172 92.0997 103.931 91.8688 104.511 91.7787C106.231 91.5116 108.622 91.5347 111.153 91.5586C112.647 91.5729 114.192 91.5878 115.692 91.5437C117.046 91.5037 116.986 89.3924 115.631 89.4352C114.172 89.4782 112.647 89.4633 111.173 89.4495C108.553 89.4241 106.078 89.4006 104.187 89.6945C102.57 89.9456 100.563 90.6038 100.3 92.4738C99.9638 94.862 102.338 95.6437 104.211 96.0522C106.415 96.5333 106.922 96.8441 106.922 97.7151C106.922 98.1159 105.997 99.0796 102.496 99.8588C99.528 100.52 95.4963 100.884 91.1441 100.884C86.8139 100.884 82.6092 100.506 79.6083 99.8463C76.0239 99.0588 75.077 98.1079 75.077 97.7151C75.077 96.8441 75.5838 96.5333 77.7888 96.0522C79.6609 95.6436 82.0355 94.862 81.6995 92.4738C81.4364 90.6039 79.4289 89.9456 77.8121 89.6945C75.9214 89.4009 73.4469 89.4243 70.8263 89.4495C69.352 89.4634 67.8278 89.4782 66.3687 89.4352C64.2091 89.3717 58.4725 89.2033 57.2679 87.8936C57.1454 87.7605 57.1011 87.6435 57.1103 87.4763C57.1205 87.2852 57.5567 86.8662 59.1257 86.5086C60.7024 86.1491 62.8559 85.9774 64.9384 85.8111C67.0548 85.6423 69.0539 85.4828 70.6221 85.1364C71.9426 84.8449 73.6599 84.2868 73.9123 82.7464C74.3338 80.1738 71.5332 79.3531 69.5745 79.0162C68.9079 78.9016 66.7931 78.7595 66.878 77.6568C66.9457 76.7783 68.7438 76.4269 69.3578 76.2739C71.5543 75.7264 74.8874 75.4424 79.2624 75.4272C79.4996 76.041 79.7859 76.6431 80.1237 77.2281C82.3938 81.1601 86.4595 83.5074 90.9997 83.5074C95.5399 83.5074 99.6056 81.1601 101.876 77.2281C102.214 76.6431 102.5 76.041 102.737 75.4272C107.112 75.4424 110.445 75.7264 112.642 76.2739C113.262 76.4284 115.068 76.7801 115.121 77.6568C115.189 78.7632 113.089 78.9019 112.425 79.0162C110.647 79.322 108.451 79.8097 108.093 81.9244C107.749 83.9528 109.755 84.7783 111.377 85.1364C112.946 85.4828 114.945 85.6423 117.061 85.8111C119.144 85.9774 121.297 86.1491 122.874 86.5086C124.443 86.8662 124.879 87.285 124.889 87.4763C124.927 88.1666 123.494 88.751 120.958 89.0798C119.614 89.2539 119.883 91.3484 121.229 91.1716C122.851 90.9616 127.16 90.4029 126.995 87.3625Z" fill="#F41C31"/>
<path d="M98.2222 75.119C98.5135 74.6145 98.3407 73.9695 97.8362 73.6782C97.3318 73.387 96.6868 73.5597 96.3955 74.0643C95.2693 76.015 93.2521 77.1795 90.9998 77.1795C90.4173 77.1795 89.9451 77.6516 89.9451 78.2342C89.9451 78.8168 90.4173 79.2889 90.9998 79.2889C94.0148 79.2889 96.7148 77.7301 98.2222 75.119Z" fill="#F41C31"/>
<path d="M103.094 53.4231C105.33 53.4231 107.334 52.2664 108.452 50.3293C109.571 48.3921 109.571 46.0789 108.452 44.1418L104.007 36.4426C103.613 35.7603 102.577 35.7552 102.18 36.4426L97.735 44.1418C96.6165 46.0789 96.6165 48.3921 97.735 50.3293C98.8534 52.2664 100.857 53.4231 103.094 53.4231ZM99.5617 45.1965L103.094 39.0793L106.625 45.1965C107.362 46.4732 107.362 47.9977 106.625 49.2746C105.888 50.5514 104.568 51.3137 103.094 51.3137C101.619 51.3137 100.299 50.5514 99.5617 49.2746C98.8247 47.9977 98.8246 46.4732 99.5617 45.1965Z" fill="#F41C31"/>
<path d="M83.6873 43.8606C85.365 43.8606 86.8674 42.9932 87.7062 41.5402C88.5451 40.0873 88.5451 38.3526 87.7062 36.8996L84.6008 31.5207C84.2068 30.8384 83.1709 30.8333 82.7741 31.5207L79.6687 36.8996C78.8298 38.3526 78.8298 40.0873 79.6687 41.5402C80.5072 42.9932 82.0097 43.8606 83.6873 43.8606ZM81.4953 37.9543L83.6873 34.1574L85.8794 37.9543C86.3368 38.7469 86.3368 39.693 85.8794 40.4856C85.4218 41.2781 84.6024 41.7512 83.6873 41.7512C82.7723 41.7512 81.9528 41.2781 81.4953 40.4856C81.0377 39.693 81.0377 38.7467 81.4953 37.9543Z" fill="#F41C31"/>
</g>
<defs>
<clipPath id="clip0_105_360">
<rect width="72" height="72" fill="white" transform="translate(55 31)"/>
</clipPath>
</defs>
</svg>
