<svg width="183" height="220" viewBox="0 0 183 220" fill="none" xmlns="http://www.w3.org/2000/svg">
<rect width="183" height="220" rx="8" fill="white"/>
<path d="M33.005 172H34.7607V167.909H37.147C39.8459 167.909 41.1811 166.278 41.1811 164.131C41.1811 161.989 39.8572 160.364 37.1527 160.364H33.005V172ZM34.7607 166.42V161.869H36.9652C38.7038 161.869 39.4141 162.812 39.4141 164.131C39.4141 165.449 38.7038 166.42 36.9879 166.42H34.7607ZM46.755 172.176C48.6584 172.176 50.005 171.239 50.3913 169.818L48.7834 169.528C48.4766 170.352 47.7379 170.773 46.772 170.773C45.3175 170.773 44.3402 169.83 44.2947 168.148H50.4993V167.545C50.4993 164.392 48.6129 163.159 46.6357 163.159C44.2038 163.159 42.6016 165.011 42.6016 167.693C42.6016 170.403 44.1811 172.176 46.755 172.176ZM44.3004 166.875C44.3686 165.636 45.2663 164.562 46.647 164.562C47.9652 164.562 48.8288 165.54 48.8345 166.875H44.3004ZM57.282 169.898L54.5206 163.273H52.3842V172H54.049V165.653L56.6513 172H57.9126L60.5604 165.676V172H62.2138V163.273H60.1001L57.282 169.898ZM68.1541 172.176C70.6143 172.176 72.2223 170.375 72.2223 167.676C72.2223 164.96 70.6143 163.159 68.1541 163.159C65.6939 163.159 64.0859 164.96 64.0859 167.676C64.0859 170.375 65.6939 172.176 68.1541 172.176ZM68.1598 170.75C66.5518 170.75 65.8018 169.347 65.8018 167.67C65.8018 166 66.5518 164.58 68.1598 164.58C69.7564 164.58 70.5064 166 70.5064 167.67C70.5064 169.347 69.7564 170.75 68.1598 170.75ZM75.7834 163.273H74.1186V172H75.7834V168.375H79.5618V172H81.2209V163.273H79.5618V166.903H75.7834V163.273ZM82.4112 164.739H85.2692V172H86.9283V164.739H89.7749V163.273H82.4112V164.739ZM100.704 169.898L97.9425 163.273H95.8061V172H97.4709V165.653L100.073 172H101.335L103.982 165.676V172H105.636V163.273H103.522L100.704 169.898ZM111.576 172.176C114.036 172.176 115.644 170.375 115.644 167.676C115.644 164.96 114.036 163.159 111.576 163.159C109.116 163.159 107.508 164.96 107.508 167.676C107.508 170.375 109.116 172.176 111.576 172.176ZM111.582 170.75C109.974 170.75 109.224 169.347 109.224 167.67C109.224 166 109.974 164.58 111.582 164.58C113.178 164.58 113.928 166 113.928 167.67C113.928 169.347 113.178 170.75 111.582 170.75ZM121.217 172.176C123.279 172.176 124.614 170.938 124.802 169.239H123.148C122.933 170.182 122.2 170.739 121.228 170.739C119.79 170.739 118.864 169.54 118.864 167.636C118.864 165.767 119.808 164.591 121.228 164.591C122.308 164.591 122.967 165.273 123.148 166.091H124.802C124.62 164.33 123.183 163.159 121.2 163.159C118.739 163.159 117.148 165.011 117.148 167.676C117.148 170.307 118.683 172.176 121.217 172.176ZM125.958 164.739H128.816V172H130.475V164.739H133.322V163.273H125.958V164.739ZM138.388 172.176C140.849 172.176 142.457 170.375 142.457 167.676C142.457 164.96 140.849 163.159 138.388 163.159C135.928 163.159 134.32 164.96 134.32 167.676C134.32 170.375 135.928 172.176 138.388 172.176ZM138.394 170.75C136.786 170.75 136.036 169.347 136.036 167.67C136.036 166 136.786 164.58 138.394 164.58C139.991 164.58 140.741 166 140.741 167.67C140.741 169.347 139.991 170.75 138.394 170.75ZM144.353 172H148.523C150.433 172 151.552 171.034 151.552 169.648C151.552 168.352 150.558 167.557 149.393 167.42C150.467 167.216 151.177 166.625 151.177 165.602C151.177 164.17 149.938 163.273 147.972 163.273H144.353V172ZM145.95 170.58V168.153H148.523C149.364 168.153 149.87 168.648 149.87 169.46C149.87 170.153 149.364 170.58 148.523 170.58H145.95ZM145.95 166.909V164.71H147.972C148.938 164.71 149.523 165.114 149.523 165.784C149.523 166.483 148.944 166.909 147.989 166.909H145.95Z" fill="#1D2936"/>
<g clip-path="url(#clip0_189_207)">
<path d="M129 113.516C111.345 132.659 66.3914 120.458 47.3976 102.941C28.4038 85.4236 27.3182 55.7048 44.9728 36.5622C62.6274 17.4196 104.235 3.20066 123.229 20.7181C142.223 38.2355 146.655 94.3738 129 113.516Z" fill="#FFEFEF"/>
<path d="M127 71.5482V70.1434H120.742C119.083 67.0377 116.928 64.181 114.323 61.6814C108.02 55.6349 99.7374 52.3049 91 52.3049C78.16 52.3049 66.9364 59.4928 61.2547 70.1434H55V71.5482H60.5473C60.3072 72.054 60.0787 72.5664 59.8636 73.0859H55V74.4908H59.3191C58.2671 77.394 57.6026 80.4871 57.3867 83.7102C56.9028 83.4837 56.4411 83.1913 56.0151 82.8321L55.1093 83.9062C57.7907 86.1674 61.6198 86.2856 64.4208 84.2601C67.0676 86.1741 70.6325 86.1741 73.2794 84.2601C75.9265 86.1743 79.4912 86.1741 82.1379 84.2601C84.785 86.1743 88.3498 86.1741 90.9966 84.2601C93.6435 86.1741 97.2083 86.1741 99.8552 84.2601C102.502 86.1741 106.067 86.1741 108.714 84.2601C110.037 85.2171 111.59 85.6955 113.143 85.6955C114.696 85.6955 116.249 85.2171 117.573 84.2602C120.373 86.2854 124.202 86.1672 126.884 83.9062L125.978 82.8321C125.555 83.1893 125.096 83.4801 124.615 83.7059C124.402 80.5246 123.744 77.4285 122.679 74.4908H127V73.0859H122.133C121.918 72.5677 121.691 72.0551 121.45 71.5482H127ZM117.573 82.4502L117.12 82.832C114.816 84.7752 111.471 84.7752 109.167 82.832L108.714 82.4502L108.261 82.832C105.957 84.7752 102.612 84.7752 100.309 82.832L99.8557 82.4502L99.4029 82.832C97.0989 84.7752 93.754 84.7752 91.45 82.832L90.9972 82.4502L90.5444 82.832C88.2406 84.7752 84.8958 84.7752 82.5915 82.832L82.1387 82.4502L81.6859 82.832C79.3821 84.7752 76.0371 84.7752 73.7332 82.832L73.2803 82.4502L72.8275 82.832C70.5236 84.7752 67.1786 84.7752 64.8747 82.832L64.4218 82.4502L63.969 82.832C63.6717 83.0827 63.3568 83.3004 63.0293 83.4865C63.307 80.3468 64.1028 77.3136 65.3709 74.4906H116.629C117.898 77.3145 118.695 80.3488 118.972 83.4896C118.642 83.3029 118.326 83.0841 118.026 82.8318L117.573 82.4502ZM110.523 65.8116C111.899 67.1432 113.123 68.5949 114.185 70.1434H110.523V65.8116ZM109.118 70.1434H105.818V62.1354C106.968 62.8517 108.07 63.655 109.118 64.5412V70.1434ZM104.413 70.1434H101.113V59.7889C102.244 60.225 103.346 60.734 104.413 61.3153V70.1434ZM99.7085 70.1434H96.4076V58.4335C97.5275 58.6516 98.6294 58.9378 99.7085 59.2889V70.1434ZM95.0026 70.1434H91.7024V57.9223C92.8138 57.9496 93.9154 58.0419 95.0026 58.1969V70.1434ZM90.2977 70.1434H86.9976V58.1967C88.0846 58.0419 89.1862 57.9495 90.2977 57.9223V70.1434ZM85.5927 70.1434H82.2929V59.2875C83.3715 58.9368 84.4731 58.6508 85.5927 58.4329V70.1434ZM80.8882 70.1434H77.5884V61.3139C78.6551 60.7328 79.7573 60.2234 80.8882 59.7873V70.1434ZM76.1835 70.1434H72.8821V64.5404C73.9299 63.6536 75.0331 62.85 76.1835 62.1334V70.1434ZM71.4773 70.1434H67.8144C68.8766 68.5951 70.1001 67.1426 71.4773 65.8105V70.1434ZM66.9089 71.5482H115.09C115.393 72.0521 115.679 72.565 115.949 73.0859H66.051C66.3209 72.5652 66.6059 72.0519 66.9089 71.5482ZM120.425 84.0838C119.953 76.7145 116.769 69.858 111.416 64.7197C105.899 59.4245 98.6488 56.5085 91 56.5085C83.3245 56.5085 76.0559 59.442 70.5328 64.7687C65.2079 69.9044 62.0447 76.7379 61.5741 84.0823C60.6556 84.3267 59.6936 84.3534 58.7651 84.1645C59.7204 67.078 73.8573 53.7096 91 53.7096C99.3731 53.7096 107.31 56.9007 113.35 62.6949C119.278 68.3819 122.777 75.9932 123.234 84.1635C122.306 84.3533 121.344 84.3275 120.425 84.0838Z" fill="#F41C31"/>
</g>
<defs>
<clipPath id="clip0_189_207">
<rect width="183" height="124" fill="white"/>
</clipPath>
</defs>
</svg>
