<svg width="183" height="220" viewBox="0 0 183 220" fill="none" xmlns="http://www.w3.org/2000/svg">
<rect width="183" height="220" rx="8" fill="white"/>
<path d="M129 113.5C111.345 132.643 66.3914 120.442 47.3976 102.925C28.4038 85.4072 27.3182 55.6884 44.9728 36.5459C62.6274 17.4033 104.235 3.1843 123.229 20.7017C142.223 38.2191 146.655 94.3574 129 113.5Z" fill="#FFEFEF"/>
<path d="M46.8991 161.159H47.6946C49.5128 161.159 50.1151 160.142 50.6264 158.983L54.6491 149.364H52.8082L50.0923 156.091L47.0412 149.364H45.1776L49.2685 158.097L49.1037 158.511C48.8537 159.119 48.4673 159.614 47.598 159.614H46.8991V161.159ZM55.5327 161H57.2315V157.511H58.3338L60.9645 161H63.0724L59.652 156.517L63.0327 152.273H60.9304L58.0497 155.932H57.2315V152.273H55.5327V161ZM64.392 164.273H66.0909V159.642H66.1932C66.5 160.199 67.125 161.17 68.7159 161.17C70.8295 161.17 72.3636 159.477 72.3636 156.653C72.3636 153.824 70.8068 152.159 68.6989 152.159C67.0795 152.159 66.4943 153.148 66.1932 153.688H66.0511V152.273H64.392V164.273ZM66.0568 156.636C66.0568 154.812 66.8523 153.602 68.3352 153.602C69.875 153.602 70.6477 154.903 70.6477 156.636C70.6477 158.386 69.8523 159.722 68.3352 159.722C66.875 159.722 66.0568 158.472 66.0568 156.636ZM78.0284 161.176C79.9318 161.176 81.2784 160.239 81.6648 158.818L80.0568 158.528C79.75 159.352 79.0114 159.773 78.0455 159.773C76.5909 159.773 75.6136 158.83 75.5682 157.148H81.7727V156.545C81.7727 153.392 79.8864 152.159 77.9091 152.159C75.4773 152.159 73.875 154.011 73.875 156.693C73.875 159.403 75.4545 161.176 78.0284 161.176ZM75.5739 155.875C75.642 154.636 76.5398 153.562 77.9205 153.562C79.2386 153.562 80.1023 154.54 80.108 155.875H75.5739ZM83.6577 161H85.3111V153.739H89.1122V161H90.777V152.273H83.6577V161ZM92.3608 161H92.9062C94.8097 161 95.5085 159.591 95.6449 156.705L95.7812 153.739H98.6335V161H100.298V152.273H94.2074L94.054 156.136C93.946 158.83 93.6392 159.528 92.6676 159.528H92.3551L92.3608 161ZM106.325 161.176C108.229 161.176 109.575 160.239 109.962 158.818L108.354 158.528C108.047 159.352 107.308 159.773 106.342 159.773C104.888 159.773 103.911 158.83 103.865 157.148H110.07V156.545C110.07 153.392 108.183 152.159 106.206 152.159C103.774 152.159 102.172 154.011 102.172 156.693C102.172 159.403 103.751 161.176 106.325 161.176ZM103.871 155.875C103.939 154.636 104.837 153.562 106.217 153.562C107.536 153.562 108.399 154.54 108.405 155.875H103.871ZM113.619 152.273H111.955V161H113.619V157.375H117.398V161H119.057V152.273H117.398V155.903H113.619V152.273ZM122.994 158.619V152.273H121.33V161H123.176L127.006 154.648V161H128.67V152.273H126.841L122.994 158.619ZM134.716 161.176C136.619 161.176 137.966 160.239 138.352 158.818L136.744 158.528C136.438 159.352 135.699 159.773 134.733 159.773C133.278 159.773 132.301 158.83 132.256 157.148H138.46V156.545C138.46 153.392 136.574 152.159 134.597 152.159C132.165 152.159 130.562 154.011 130.562 156.693C130.562 159.403 132.142 161.176 134.716 161.176ZM132.261 155.875C132.33 154.636 133.227 153.562 134.608 153.562C135.926 153.562 136.79 154.54 136.795 155.875H132.261ZM72.6357 174.273H67.0561V183H68.7322V175.739H72.6357V174.273ZM74.4311 186.273H76.13V181.642H76.2322C76.5391 182.199 77.1641 183.17 78.755 183.17C80.8686 183.17 82.4027 181.477 82.4027 178.653C82.4027 175.824 80.8459 174.159 78.7379 174.159C77.1186 174.159 76.5334 175.148 76.2322 175.688H76.0902V174.273H74.4311V186.273ZM76.0959 178.636C76.0959 176.812 76.8913 175.602 78.3743 175.602C79.9141 175.602 80.6868 176.903 80.6868 178.636C80.6868 180.386 79.8913 181.722 78.3743 181.722C76.9141 181.722 76.0959 180.472 76.0959 178.636ZM85.0675 186.273C86.4709 186.273 87.3572 185.54 87.8629 184.165L91.4709 174.29L89.6357 174.273L87.4254 181.045H87.3345L85.1243 174.273H83.3061L86.4993 183.114L86.2891 183.693C85.8572 184.852 85.2493 184.949 84.3175 184.693L83.9084 186.085C84.1129 186.176 84.5561 186.273 85.0675 186.273ZM94.7365 174.273H93.0717V183H94.7365V179.375H98.5149V183H100.174V174.273H98.5149V177.903H94.7365V174.273ZM101.364 175.739H104.222V183H105.881V175.739H108.728V174.273H101.364V175.739ZM112.658 183.193C114.102 183.193 114.914 182.46 115.238 181.807H115.306V183H116.965V177.205C116.965 174.665 114.965 174.159 113.579 174.159C111.999 174.159 110.545 174.795 109.977 176.386L111.573 176.75C111.823 176.131 112.46 175.534 113.602 175.534C114.698 175.534 115.261 176.108 115.261 177.097V177.136C115.261 177.756 114.624 177.744 113.056 177.926C111.403 178.119 109.71 178.551 109.71 180.534C109.71 182.25 110.999 183.193 112.658 183.193ZM113.028 181.83C112.067 181.83 111.374 181.398 111.374 180.557C111.374 179.648 112.181 179.324 113.164 179.193C113.715 179.119 115.022 178.972 115.266 178.727V179.852C115.266 180.886 114.442 181.83 113.028 181.83Z" fill="#1D2936"/>
<g clip-path="url(#clip0_105_347)">
<path d="M124.622 89.0729C124.622 87.6127 125.266 86.471 125.889 85.3667C126.806 83.74 127.948 81.7155 125.662 79.4292C123.375 77.143 121.351 78.2848 119.724 79.2024C118.619 79.8253 117.477 80.4694 116.017 80.4694C115.573 80.4694 115.17 80.4503 114.785 80.4112C114.204 80.3513 113.688 80.774 113.629 81.3535C113.569 81.9331 113.991 82.4508 114.571 82.5098C115.027 82.5564 115.5 82.579 116.017 82.579C118.031 82.579 119.544 81.7258 120.76 81.04C122.474 80.0731 123.069 79.8201 124.17 80.9212C125.271 82.0219 125.018 82.6166 124.051 84.3301C123.365 85.5459 122.512 87.0587 122.512 89.0729C122.512 91.3508 122.968 92.5546 123.371 93.6164C123.7 94.4866 123.992 95.2556 124.071 96.6361H108.95C109.078 96.1254 109.24 95.6921 109.409 95.2442C109.81 94.1802 110.265 92.9742 110.265 90.6925C110.265 90.1098 109.793 89.6377 109.21 89.6377C108.627 89.6377 108.155 90.1098 108.155 90.6925C108.155 92.5899 107.821 93.4751 107.435 94.5002C107.209 95.0989 106.959 95.7626 106.789 96.6362H91.5284C91.6561 96.1257 91.8183 95.6924 91.9872 95.2445C92.3883 94.1805 92.8428 92.9744 92.8428 90.6926C92.8428 90.1099 92.3707 89.6378 91.788 89.6378C91.2054 89.6378 90.7332 90.1099 90.7332 90.6926C90.7332 92.59 90.3995 93.4753 90.0131 94.5003C89.7875 95.099 89.5375 95.7627 89.3673 96.6364H74.1065C74.2342 96.1259 74.3963 95.6926 74.5653 95.2446C74.9664 94.1807 75.4209 92.9745 75.4209 90.6928C75.4209 90.1101 74.9486 89.6379 74.3661 89.6379C73.7836 89.6379 73.3113 90.1101 73.3113 90.6928C73.3113 92.5901 72.9776 93.4755 72.5912 94.5005C72.3655 95.0992 72.1154 95.7629 71.9454 96.6365H65.8184C65.2358 96.6365 64.7635 97.1087 64.7635 97.6913C64.7635 98.274 65.2358 98.7462 65.8184 98.7462H124.871C125.605 98.7462 126.202 98.1503 126.202 97.4126C126.202 95.1346 125.746 93.931 125.343 92.8692C124.956 91.847 124.622 90.9646 124.622 89.0729Z" fill="#F41C31"/>
<path d="M61.6011 96.6361H57.9286C58.0077 95.258 58.2993 94.4884 58.6292 93.6181C59.0317 92.5561 59.488 91.3525 59.488 89.0741C59.488 87.0599 58.6346 85.5468 57.9488 84.331C56.982 82.617 56.7287 82.0224 57.83 80.921C58.9309 79.8204 59.5255 80.0735 61.2391 81.04C62.4548 81.7258 63.9677 82.579 65.9818 82.579C68.2598 82.579 69.4634 82.1228 70.5252 81.7204C71.547 81.3331 72.4294 80.9986 74.321 80.9986C76.2125 80.9986 77.0949 81.3331 78.1165 81.7204C79.1783 82.1228 80.3818 82.579 82.6597 82.579C84.9377 82.579 86.1412 82.1228 87.203 81.7204C88.2248 81.3331 89.1072 80.9986 90.9985 80.9986C92.8901 80.9986 93.7727 81.3331 94.7943 81.7204C95.8563 82.1228 97.0597 82.579 99.3378 82.579C101.616 82.579 102.819 82.1228 103.881 81.7204C104.903 81.3331 105.785 80.9986 107.677 80.9986C108.652 80.9986 109.451 81.0901 110.189 81.2867C110.753 81.4363 111.33 81.1017 111.48 80.5386C111.63 79.9756 111.295 79.3979 110.732 79.2479C109.811 79.0031 108.841 78.889 107.677 78.889C105.399 78.889 104.195 79.3451 103.133 79.7476C102.112 80.135 101.229 80.4694 99.3378 80.4694C97.4462 80.4694 96.5637 80.135 95.5421 79.7476C94.4801 79.3453 93.2766 78.889 90.9985 78.889C88.7207 78.889 87.5171 79.3453 86.4552 79.7476C85.4335 80.135 84.5511 80.4694 82.6596 80.4694C80.7681 80.4694 79.8857 80.135 78.8641 79.7476C77.8023 79.3453 76.5988 78.889 74.3208 78.889C72.0429 78.889 70.8393 79.3453 69.7774 79.7476C68.7557 80.135 67.8733 80.4694 65.9817 80.4694C64.5215 80.4694 63.3798 79.8254 62.2755 79.2025C60.6487 78.2847 58.6242 77.1427 56.338 79.4294C54.0516 81.7161 55.1936 83.7406 56.1112 85.3675C56.7341 86.4718 57.3782 87.6137 57.3782 89.074C57.3782 90.9657 57.0438 91.8484 56.6565 92.8702C56.2539 93.9322 55.7977 95.1358 55.7977 97.4174C55.798 98.1497 56.395 98.7455 57.1283 98.7455H61.6008C62.1834 98.7455 62.6556 98.2733 62.6556 97.6906C62.6556 97.108 62.1837 96.6361 61.6011 96.6361Z" fill="#F41C31"/>
<path d="M86.3467 64.6862C85.7641 64.6862 85.2919 65.1583 85.2919 65.741C85.2919 66.3236 85.7641 66.7958 86.3467 66.7958H95.6532C96.2359 66.7958 96.708 66.3236 96.708 65.741C96.708 65.1583 96.2359 64.6862 95.6532 64.6862H86.3467Z" fill="#F41C31"/>
<path d="M91 75.0379C98.6293 75.0379 107.386 73.7673 107.386 63.8599C107.386 59.4693 105.69 55.3774 102.598 52.2851V44.0351C102.598 39.1934 98.6592 35.2543 93.8175 35.2543H88.1824C84.7023 35.2543 81.5463 37.3178 80.142 40.5114C79.9075 41.0446 80.1497 41.6671 80.683 41.9015C81.2166 42.1366 81.8387 41.8938 82.0733 41.3605C83.1409 38.9326 85.5389 37.3639 88.1826 37.3639H93.8176C97.4961 37.3639 100.489 40.3565 100.489 44.0351V52.7304C100.489 53.0201 100.608 53.2967 100.818 53.496C103.693 56.2204 105.277 59.9011 105.277 63.8599C105.277 70.3009 101.141 72.9283 91.0002 72.9283C80.8598 72.9283 76.7237 70.3009 76.7237 63.8599C76.7237 59.9012 78.3072 56.2205 81.1823 53.4957C81.3926 53.2966 81.5115 53.0196 81.5115 52.7302V45.121C81.5115 44.5383 81.0393 44.0661 80.4567 44.0661C79.8742 44.0661 79.4019 44.5383 79.4019 45.121V52.2849C76.3106 55.3772 74.6141 59.4695 74.6141 63.8599C74.6138 73.7673 83.371 75.0379 91 75.0379Z" fill="#F41C31"/>
<path d="M98.3234 49.8652V44.0351C98.3234 41.5505 96.3021 39.5291 93.8175 39.5291H88.1824C85.6979 39.5291 83.6766 41.5505 83.6766 44.0351V49.8652C83.6766 50.6289 84.466 51.1408 85.1632 50.8276C87.0032 50.0022 88.9671 49.5835 91 49.5835C93.033 49.5835 94.9966 50.0022 96.8368 50.8276C97.528 51.1381 98.3234 50.6351 98.3234 49.8652ZM96.2138 48.3207C94.541 47.7583 92.7936 47.4739 90.9999 47.4739C89.2062 47.4739 87.4588 47.7581 85.7861 48.3207V44.0351C85.7861 42.7136 86.861 41.6387 88.1823 41.6387H93.8174C95.1387 41.6387 96.2136 42.7137 96.2136 44.0351V48.3207H96.2138Z" fill="#F41C31"/>
<path d="M74.7767 49.5262C75.3592 49.5262 75.8315 49.054 75.8315 48.4714V40.5714C75.8315 39.9887 75.3592 39.5166 74.7767 39.5166C74.1941 39.5166 73.7219 39.9887 73.7219 40.5714V48.4714C73.7219 49.0539 74.1941 49.5262 74.7767 49.5262Z" fill="#F41C31"/>
<path d="M69.7748 54.1668C70.3573 54.1668 70.8296 53.6947 70.8296 53.112V49.4311C70.8296 48.8485 70.3573 48.3763 69.7748 48.3763C69.1922 48.3763 68.72 48.8485 68.72 49.4311V53.112C68.72 53.6947 69.1922 54.1668 69.7748 54.1668Z" fill="#F41C31"/>
<path d="M69.7748 46.7133C70.3573 46.7133 70.8296 46.2411 70.8296 45.6585V43.3842C70.8296 42.8015 70.3573 42.3293 69.7748 42.3293C69.1922 42.3293 68.72 42.8015 68.72 43.3842V45.6585C68.72 46.241 69.1922 46.7133 69.7748 46.7133Z" fill="#F41C31"/>
<path d="M107.223 49.5262C107.806 49.5262 108.278 49.054 108.278 48.4714V40.5714C108.278 39.9887 107.806 39.5166 107.223 39.5166C106.641 39.5166 106.169 39.9887 106.169 40.5714V48.4714C106.169 49.0539 106.641 49.5262 107.223 49.5262Z" fill="#F41C31"/>
<path d="M112.225 54.1668C112.808 54.1668 113.28 53.6947 113.28 53.112V49.4311C113.28 48.8485 112.808 48.3763 112.225 48.3763C111.643 48.3763 111.17 48.8485 111.17 49.4311V53.112C111.17 53.6947 111.643 54.1668 112.225 54.1668Z" fill="#F41C31"/>
<path d="M112.225 46.7133C112.808 46.7133 113.28 46.2411 113.28 45.6585V43.3842C113.28 42.8015 112.808 42.3293 112.225 42.3293C111.643 42.3293 111.17 42.8015 111.17 43.3842V45.6585C111.17 46.241 111.643 46.7133 112.225 46.7133Z" fill="#F41C31"/>
</g>
<defs>
<clipPath id="clip0_105_347">
<rect width="72" height="72" fill="white" transform="translate(55 31)"/>
</clipPath>
</defs>
</svg>
