<svg width="183" height="220" viewBox="0 0 183 220" fill="none" xmlns="http://www.w3.org/2000/svg">
<rect width="183" height="220" rx="8" fill="white"/>
<g clip-path="url(#clip0_189_240)">
<g clip-path="url(#clip1_189_240)">
<path d="M129 113.516C111.345 132.659 66.3914 120.458 47.3976 102.941C28.4038 85.4236 27.3182 55.7048 44.9728 36.5622C62.6275 17.4196 104.236 3.20066 123.229 20.7181C142.223 38.2355 146.655 94.3738 129 113.516Z" fill="#FFEFEF"/>
<path d="M88 103.054C87.8582 103.054 87.718 103.023 87.5894 102.964C70.6665 95.0865 60.5622 81.5057 60.5622 66.6358V46.0963C60.5621 45.9608 60.5904 45.8267 60.6452 45.7027C60.7 45.5787 60.7801 45.4675 60.8803 45.3763C60.9805 45.2845 61.0989 45.2148 61.2278 45.1719C61.3568 45.129 61.4933 45.1137 61.6285 45.1272C72.3225 46.1527 80.7105 42.9332 87.2605 35.2866C87.3519 35.1798 87.4653 35.094 87.5929 35.0353C87.7206 34.9765 87.8595 34.946 88 34.946C88.1407 34.9463 88.2797 34.977 88.4073 35.0361C88.535 35.0953 88.6483 35.1814 88.7395 35.2885C95.1475 42.8125 103.541 46.0379 114.384 45.1263C114.519 45.1151 114.654 45.1319 114.781 45.1758C114.909 45.2197 115.026 45.2895 115.125 45.381C115.224 45.4725 115.303 45.5836 115.357 45.7072C115.411 45.8309 115.438 45.9644 115.438 46.0992V66.6358C115.441 67.6105 115.394 68.5848 115.298 69.5547C115.081 71.9359 114.6 74.2856 113.863 76.5601C113.548 77.5699 113.18 78.5624 112.761 79.5335C111.715 81.9962 110.406 84.3393 108.859 86.5224C108.664 86.8143 108.436 87.1256 108.208 87.436C102.982 94.1567 96.1829 99.4892 88.4106 102.964C88.282 103.023 88.1418 103.054 88 103.054ZM62.5081 47.1539V66.6358C62.5081 80.6096 72.0287 93.4305 88 101.011C95.3064 97.6825 101.699 92.6354 106.631 86.3005C106.851 86.0086 107.06 85.7245 107.249 85.4356C108.725 83.3572 109.973 81.1256 110.97 78.7794C111.364 77.865 111.711 76.9307 112.008 75.9802C112.704 73.8344 113.157 71.6175 113.36 69.3708C113.451 68.4621 113.495 67.5491 113.492 66.6358V47.1423C102.886 47.7893 94.5257 44.5882 88 37.3911C81.3429 44.704 72.9841 47.9051 62.5081 47.1539Z" fill="#F41C31"/>
<path d="M108.463 70.4304C108.422 70.4307 108.381 70.4281 108.341 70.4226C108.085 70.3905 107.852 70.2582 107.694 70.0545C107.536 69.8509 107.465 69.5927 107.496 69.3368C107.605 68.4406 107.658 67.5385 107.654 66.6358C107.653 66.3778 107.754 66.1298 107.936 65.9464C108.117 65.763 108.364 65.6593 108.622 65.658C108.88 65.6567 109.128 65.758 109.312 65.9395C109.495 66.1211 109.599 66.368 109.6 66.6261V66.6358C109.604 67.6192 109.546 68.6019 109.427 69.5781C109.397 69.8132 109.283 70.0295 109.106 70.1864C108.928 70.3433 108.7 70.4301 108.463 70.4304Z" fill="#F41C31"/>
<path d="M105.444 80.1309C105.277 80.1308 105.112 80.0874 104.966 80.0049C104.821 79.9225 104.698 79.8038 104.612 79.6603C104.525 79.5169 104.477 79.3535 104.473 79.1861C104.468 79.0186 104.506 78.8527 104.584 78.7045C105.063 77.801 105.489 76.8706 105.861 75.9179C105.907 75.7987 105.976 75.6897 106.064 75.5972C106.152 75.5046 106.258 75.4304 106.374 75.3786C106.491 75.3268 106.617 75.2986 106.745 75.2955C106.873 75.2923 107 75.3144 107.119 75.3604C107.238 75.4064 107.347 75.4754 107.44 75.5635C107.532 75.6517 107.606 75.7571 107.658 75.874C107.71 75.9908 107.738 76.1167 107.741 76.2444C107.745 76.3721 107.722 76.4992 107.676 76.6185C107.278 77.6418 106.82 78.6411 106.306 79.6113C106.223 79.7681 106.099 79.8994 105.947 79.991C105.796 80.0826 105.622 80.1309 105.444 80.1309Z" fill="#F41C31"/>
<path d="M88 96.5447C87.842 96.5444 87.6865 96.506 87.5466 96.4328C74.3054 89.4595 66.4 78.32 66.4 66.6355V52.0798C66.3997 51.8297 66.4958 51.589 66.6682 51.4079C66.8407 51.2267 67.0764 51.1189 67.3262 51.1069C74.6843 50.8542 81.7437 48.1346 87.3695 43.3854C87.5449 43.2377 87.7668 43.1567 87.9961 43.1567C88.2254 43.1567 88.4473 43.2377 88.6227 43.3854C94.2761 48.0871 101.328 50.7826 108.677 51.0504C108.925 51.0639 109.16 51.1723 109.331 51.3534C109.502 51.5344 109.597 51.7742 109.597 52.0234V59.8169C109.597 60.075 109.495 60.3225 109.312 60.5049C109.13 60.6874 108.882 60.7899 108.624 60.7899C108.366 60.7899 108.119 60.6874 107.936 60.5049C107.754 60.3225 107.651 60.075 107.651 59.8169V52.9331C100.483 52.4916 93.6227 49.8584 88 45.3897C82.399 49.9073 75.5289 52.5663 68.3459 52.9964V66.6355C68.3459 77.6155 75.5012 87.7374 88 94.4694C92.4682 92.1259 96.4992 89.03 99.916 85.3176C100.001 85.2197 100.104 85.1398 100.22 85.0823C100.336 85.0249 100.462 84.9912 100.591 84.9831C100.72 84.9751 100.85 84.9929 100.972 85.0355C101.094 85.078 101.207 85.1446 101.303 85.2312C101.399 85.3177 101.477 85.4226 101.532 85.5397C101.587 85.6567 101.618 85.7836 101.624 85.9129C101.629 86.0422 101.609 86.1712 101.564 86.2926C101.519 86.4139 101.45 86.525 101.362 86.6194C97.6727 90.6277 93.3023 93.9502 88.4534 96.4328C88.3134 96.506 88.1579 96.5444 88 96.5447Z" fill="#F41C31"/>
</g>
</g>
<path d="M47.5675 156H52.0277C54.7322 156 55.9538 154.653 55.9538 152.869C55.9538 151.068 54.6925 150.051 53.5391 149.989V149.875C54.6072 149.602 55.4993 148.875 55.4993 147.42C55.4993 145.699 54.3061 144.364 51.8288 144.364H47.5675V156ZM49.3232 154.494V150.767H51.9197C53.3288 150.767 54.2095 151.676 54.2095 152.784C54.2095 153.761 53.5447 154.494 51.8572 154.494H49.3232ZM49.3232 149.398V145.858H51.7209C53.1129 145.858 53.7777 146.591 53.7777 147.557C53.7777 148.682 52.8572 149.398 51.6754 149.398H49.3232ZM59.5646 147.273H57.8999V156H59.5646V152.375H63.343V156H65.0021V147.273H63.343V150.903H59.5646V147.273ZM68.0362 159.273C69.4396 159.273 70.326 158.54 70.8317 157.165L74.4396 147.29L72.6044 147.273L70.3942 154.045H70.3033L68.093 147.273H66.2749L69.468 156.114L69.2578 156.693C68.826 157.852 68.218 157.949 67.2862 157.693L66.8771 159.085C67.0817 159.176 67.5249 159.273 68.0362 159.273ZM75.5518 148.739H78.4098V156H80.0689V148.739H82.9155V147.273H75.5518V148.739ZM84.7124 159.273H86.4112V154.642H86.5135C86.8203 155.199 87.4453 156.17 89.0362 156.17C91.1499 156.17 92.6839 154.477 92.6839 151.653C92.6839 148.824 91.1271 147.159 89.0192 147.159C87.3999 147.159 86.8146 148.148 86.5135 148.688H86.3714V147.273H84.7124V159.273ZM86.3771 151.636C86.3771 149.812 87.1726 148.602 88.6555 148.602C90.1953 148.602 90.968 149.903 90.968 151.636C90.968 153.386 90.1726 154.722 88.6555 154.722C87.1953 154.722 86.3771 153.472 86.3771 151.636ZM98.3487 156.176C100.252 156.176 101.599 155.239 101.985 153.818L100.377 153.528C100.07 154.352 99.3317 154.773 98.3658 154.773C96.9112 154.773 95.9339 153.83 95.8885 152.148H102.093V151.545C102.093 148.392 100.207 147.159 98.2294 147.159C95.7976 147.159 94.1953 149.011 94.1953 151.693C94.1953 154.403 95.7749 156.176 98.3487 156.176ZM95.8942 150.875C95.9624 149.636 96.8601 148.562 98.2408 148.562C99.5589 148.562 100.423 149.54 100.428 150.875H95.8942ZM105.643 147.273H103.978V156H105.643V152.375H109.421V156H111.08V147.273H109.421V150.903H105.643V147.273ZM115.018 147.273H113.353V156H115.018V152.375H118.796V156H120.455V147.273H118.796V150.903H115.018V147.273ZM127.933 156H129.529V147.273H125.842C123.83 147.273 122.603 148.312 122.603 149.955C122.603 151.102 123.205 151.949 124.245 152.341L122.205 156H123.944L125.847 152.585H127.933V156ZM127.933 151.21H125.728C124.802 151.21 124.262 150.722 124.268 149.977C124.262 149.227 124.847 148.722 125.842 148.722H127.933V151.21ZM136.995 156H138.592V147.273H134.904C132.893 147.273 131.665 148.312 131.665 149.955C131.665 151.102 132.268 151.949 133.308 152.341L131.268 156H133.006L134.91 152.585H136.995V156ZM136.995 151.21H134.79C133.864 151.21 133.325 150.722 133.33 149.977C133.325 149.227 133.91 148.722 134.904 148.722H136.995V151.21ZM18.7287 175.619V169.273H17.0639V178H18.9105L22.7401 171.648V178H24.4048V169.273H22.5753L18.7287 175.619ZM32.5881 169.273H30.9233V178H32.5881V174.375H36.3665V178H38.0256V169.273H36.3665V172.903H32.5881V169.273ZM42.8381 178.193C44.2812 178.193 45.0938 177.46 45.4176 176.807H45.4858V178H47.1449V172.205C47.1449 169.665 45.1449 169.159 43.7585 169.159C42.179 169.159 40.7244 169.795 40.1562 171.386L41.7528 171.75C42.0028 171.131 42.6392 170.534 43.7812 170.534C44.8778 170.534 45.4403 171.108 45.4403 172.097V172.136C45.4403 172.756 44.804 172.744 43.2358 172.926C41.5824 173.119 39.8892 173.551 39.8892 175.534C39.8892 177.25 41.179 178.193 42.8381 178.193ZM43.2074 176.83C42.2472 176.83 41.554 176.398 41.554 175.557C41.554 174.648 42.3608 174.324 43.3438 174.193C43.8949 174.119 45.2017 173.972 45.446 173.727V174.852C45.446 175.886 44.6222 176.83 43.2074 176.83ZM49.4077 181.273H51.1065V176.642H51.2088C51.5156 177.199 52.1406 178.17 53.7315 178.17C55.8452 178.17 57.3793 176.477 57.3793 173.653C57.3793 170.824 55.8224 169.159 53.7145 169.159C52.0952 169.159 51.5099 170.148 51.2088 170.688H51.0668V169.273H49.4077V181.273ZM51.0724 173.636C51.0724 171.812 51.8679 170.602 53.3509 170.602C54.8906 170.602 55.6634 171.903 55.6634 173.636C55.6634 175.386 54.8679 176.722 53.3509 176.722C51.8906 176.722 51.0724 175.472 51.0724 173.636ZM60.044 181.273C61.4474 181.273 62.3338 180.54 62.8395 179.165L66.4474 169.29L64.6122 169.273L62.402 176.045H62.3111L60.1009 169.273H58.2827L61.4759 178.114L61.2656 178.693C60.8338 179.852 60.2259 179.949 59.294 179.693L58.8849 181.085C59.0895 181.176 59.5327 181.273 60.044 181.273ZM67.4915 178H69.5085L72.2472 174.364H72.8153V178H74.5142V174.364H75.0824L77.804 178H79.821L76.4574 173.534L79.7812 169.273H77.804L75.1051 172.898H74.5142V169.273H72.8153V172.898H72.2074L69.5085 169.273H67.5312L70.8722 173.534L67.4915 178ZM83.2131 169.273H81.5483V178H83.2131V174.375H86.9915V178H88.6506V169.273H86.9915V172.903H83.2131V169.273ZM93.4631 178.193C94.9062 178.193 95.7188 177.46 96.0426 176.807H96.1108V178H97.7699V172.205C97.7699 169.665 95.7699 169.159 94.3835 169.159C92.804 169.159 91.3494 169.795 90.7812 171.386L92.3778 171.75C92.6278 171.131 93.2642 170.534 94.4062 170.534C95.5028 170.534 96.0653 171.108 96.0653 172.097V172.136C96.0653 172.756 95.429 172.744 93.8608 172.926C92.2074 173.119 90.5142 173.551 90.5142 175.534C90.5142 177.25 91.804 178.193 93.4631 178.193ZM93.8324 176.83C92.8722 176.83 92.179 176.398 92.179 175.557C92.179 174.648 92.9858 174.324 93.9688 174.193C94.5199 174.119 95.8267 173.972 96.071 173.727V174.852C96.071 175.886 95.2472 176.83 93.8324 176.83ZM105.237 178H106.834V169.273H103.146C101.135 169.273 99.9077 170.312 99.9077 171.955C99.9077 173.102 100.51 173.949 101.55 174.341L99.5099 178H101.249L103.152 174.585H105.237V178ZM105.237 173.21H103.033C102.107 173.21 101.567 172.722 101.572 171.977C101.567 171.227 102.152 170.722 103.146 170.722H105.237V173.21ZM112.812 175.693C112.864 177.216 114.29 178.176 116.227 178.176C118.216 178.176 119.653 177.176 119.653 175.574C119.653 174.438 118.932 173.597 117.92 173.528V173.438C118.835 173.176 119.466 172.562 119.466 171.602C119.466 170.17 118.239 169.159 116.295 169.159C114.432 169.159 113.062 170.153 113.028 171.619H114.744C114.778 170.966 115.455 170.511 116.381 170.511C117.295 170.511 117.83 170.989 117.83 171.699C117.83 172.364 117.352 172.852 116.392 172.852H114.972V174.188H116.392C117.358 174.188 117.977 174.722 117.977 175.511C117.977 176.403 117.188 176.807 116.21 176.807C115.25 176.807 114.602 176.409 114.551 175.693H112.812ZM123.947 178.193C125.391 178.193 126.203 177.46 126.527 176.807H126.595V178H128.254V172.205C128.254 169.665 126.254 169.159 124.868 169.159C123.288 169.159 121.834 169.795 121.266 171.386L122.862 171.75C123.112 171.131 123.749 170.534 124.891 170.534C125.987 170.534 126.55 171.108 126.55 172.097V172.136C126.55 172.756 125.913 172.744 124.345 172.926C122.692 173.119 120.999 173.551 120.999 175.534C120.999 177.25 122.288 178.193 123.947 178.193ZM124.317 176.83C123.357 176.83 122.663 176.398 122.663 175.557C122.663 174.648 123.47 174.324 124.453 174.193C125.004 174.119 126.311 173.972 126.555 173.727V174.852C126.555 175.886 125.732 176.83 124.317 176.83ZM143.023 176.534H141.545V169.273H139.881V176.528H136.864V169.273H135.199V176.528H132.182V169.273H130.517V178H141.199V180.5H142.864L143.023 176.534ZM146.479 175.619V169.273H144.814V178H146.661L150.49 171.648V178H152.155V169.273H150.325L146.479 175.619ZM153.357 170.739H156.214V178H157.874V170.739H160.72V169.273H153.357V170.739ZM164.651 178.193C166.094 178.193 166.906 177.46 167.23 176.807H167.298V178H168.957V172.205C168.957 169.665 166.957 169.159 165.571 169.159C163.991 169.159 162.537 169.795 161.969 171.386L163.565 171.75C163.815 171.131 164.452 170.534 165.594 170.534C166.69 170.534 167.253 171.108 167.253 172.097V172.136C167.253 172.756 166.616 172.744 165.048 172.926C163.395 173.119 161.702 173.551 161.702 175.534C161.702 177.25 162.991 178.193 164.651 178.193ZM165.02 176.83C164.06 176.83 163.366 176.398 163.366 175.557C163.366 174.648 164.173 174.324 165.156 174.193C165.707 174.119 167.014 173.972 167.259 173.727V174.852C167.259 175.886 166.435 176.83 165.02 176.83ZM48.7401 200.176C50.8026 200.176 52.1378 198.938 52.3253 197.239H50.6719C50.456 198.182 49.723 198.739 48.7514 198.739C47.3139 198.739 46.3878 197.54 46.3878 195.636C46.3878 193.767 47.331 192.591 48.7514 192.591C49.831 192.591 50.4901 193.273 50.6719 194.091H52.3253C52.1435 192.33 50.706 191.159 48.723 191.159C46.2628 191.159 44.6719 193.011 44.6719 195.676C44.6719 198.307 46.206 200.176 48.7401 200.176ZM57.8182 200.176C60.2784 200.176 61.8864 198.375 61.8864 195.676C61.8864 192.96 60.2784 191.159 57.8182 191.159C55.358 191.159 53.75 192.96 53.75 195.676C53.75 198.375 55.358 200.176 57.8182 200.176ZM57.8239 198.75C56.2159 198.75 55.4659 197.347 55.4659 195.67C55.4659 194 56.2159 192.58 57.8239 192.58C59.4205 192.58 60.1705 194 60.1705 195.67C60.1705 197.347 59.4205 198.75 57.8239 198.75ZM67.4588 200.176C69.919 200.176 71.527 198.375 71.527 195.676C71.527 192.96 69.919 191.159 67.4588 191.159C64.9986 191.159 63.3906 192.96 63.3906 195.676C63.3906 198.375 64.9986 200.176 67.4588 200.176ZM67.4645 198.75C65.8565 198.75 65.1065 197.347 65.1065 195.67C65.1065 194 65.8565 192.58 67.4645 192.58C69.0611 192.58 69.8111 194 69.8111 195.67C69.8111 197.347 69.0611 198.75 67.4645 198.75ZM73.4233 203.273H75.1222V198.642H75.2244C75.5312 199.199 76.1562 200.17 77.7472 200.17C79.8608 200.17 81.3949 198.477 81.3949 195.653C81.3949 192.824 79.8381 191.159 77.7301 191.159C76.1108 191.159 75.5256 192.148 75.2244 192.688H75.0824V191.273H73.4233V203.273ZM75.0881 195.636C75.0881 193.812 75.8835 192.602 77.3665 192.602C78.9062 192.602 79.679 193.903 79.679 195.636C79.679 197.386 78.8835 198.722 77.3665 198.722C75.9062 198.722 75.0881 197.472 75.0881 195.636ZM84.0597 203.273C85.4631 203.273 86.3494 202.54 86.8551 201.165L90.4631 191.29L88.6278 191.273L86.4176 198.045H86.3267L84.1165 191.273H82.2983L85.4915 200.114L85.2812 200.693C84.8494 201.852 84.2415 201.949 83.3097 201.693L82.9006 203.085C83.1051 203.176 83.5483 203.273 84.0597 203.273ZM91.5071 200H93.5241L96.2628 196.364H96.831V200H98.5298V196.364H99.098L101.82 200H103.837L100.473 195.534L103.797 191.273H101.82L99.1207 194.898H98.5298V191.273H96.831V194.898H96.223L93.5241 191.273H91.5469L94.8878 195.534L91.5071 200ZM108.966 200.176C110.869 200.176 112.216 199.239 112.602 197.818L110.994 197.528C110.688 198.352 109.949 198.773 108.983 198.773C107.528 198.773 106.551 197.83 106.506 196.148H112.71V195.545C112.71 192.392 110.824 191.159 108.847 191.159C106.415 191.159 104.812 193.011 104.812 195.693C104.812 198.403 106.392 200.176 108.966 200.176ZM106.511 194.875C106.58 193.636 107.477 192.562 108.858 192.562C110.176 192.562 111.04 193.54 111.045 194.875H106.511ZM116.26 191.273H114.595V200H116.26V196.375H120.038V200H121.697V191.273H120.038V194.903H116.26V191.273ZM125.635 197.619V191.273H123.97V200H125.817L129.646 193.648V200H131.311V191.273H129.482L125.635 197.619ZM135.26 197.619V191.273H133.595V200H135.442L139.271 193.648V200H140.936V191.273H139.107L135.26 197.619ZM138.379 188.318C138.379 188.892 138.061 189.398 137.266 189.398C136.459 189.398 136.158 188.886 136.158 188.318H134.766C134.766 189.597 135.737 190.477 137.266 190.477C138.805 190.477 139.777 189.597 139.777 188.318H138.379Z" fill="#1D2936"/>
<defs>
<clipPath id="clip0_189_240">
<rect width="183" height="124" fill="white"/>
</clipPath>
<clipPath id="clip1_189_240">
<rect width="159.589" height="159.47" fill="white" transform="translate(13.0063 -11)"/>
</clipPath>
</defs>
</svg>
