<svg width="183" height="220" viewBox="0 0 183 220" fill="none" xmlns="http://www.w3.org/2000/svg">
<rect width="183" height="220" rx="8" fill="white"/>
<path d="M129 113.5C111.345 132.643 66.3913 120.442 47.3975 102.925C28.4037 85.4072 27.3181 55.6884 44.9727 36.5459C62.6273 17.4033 104.235 3.1843 123.229 20.7017C142.223 38.2191 146.655 94.3574 129 113.5Z" fill="#FFEFEF"/>
<path d="M45.0348 160.364H43.2962V165.398H41.9496L39.0632 160.364H36.9155L40.3814 165.909L36.6541 172H38.6825L41.6484 167.034H43.2962V172H45.0348V167.034H46.6996L49.6257 172H51.6768L47.9723 165.92L51.4268 160.364H49.2848L46.4212 165.398H45.0348V160.364ZM54.924 169.619V163.273H53.2592V172H55.1058L58.9354 165.648V172H60.6001V163.273H58.7706L54.924 169.619ZM62.032 174.517H63.7138V172H69.799V174.517H71.4581V170.528H70.1172V163.273H64.1854L63.9126 166.528C63.7308 168.727 63.4638 169.875 62.7422 170.528H62.032V174.517ZM64.5604 170.528C65.1399 169.716 65.3558 168.364 65.5263 166.528L65.7081 164.727H68.4581V170.528H64.5604ZM73.1186 172H74.8175V168.511H75.9197L78.5504 172H80.6584L77.2379 167.517L80.6186 163.273H78.5163L75.6357 166.932H74.8175V163.273H73.1186V172ZM83.6428 169.619V163.273H81.978V172H83.8246L87.6541 165.648V172H89.3189V163.273H87.4893L83.6428 169.619ZM93.2678 169.619V163.273H91.603V172H93.4496L97.2791 165.648V172H98.9439V163.273H97.1143L93.2678 169.619ZM96.3871 160.318C96.3871 160.892 96.0689 161.398 95.2734 161.398C94.4666 161.398 94.1655 160.886 94.1655 160.318H92.7734C92.7734 161.597 93.745 162.477 95.2734 162.477C96.8132 162.477 97.7848 161.597 97.7848 160.318H96.3871ZM111.042 163.273H105.462V172H107.138V164.739H111.042V163.273ZM112.837 175.273H114.536V170.642H114.638C114.945 171.199 115.57 172.17 117.161 172.17C119.275 172.17 120.809 170.477 120.809 167.653C120.809 164.824 119.252 163.159 117.144 163.159C115.525 163.159 114.94 164.148 114.638 164.688H114.496V163.273H112.837V175.273ZM114.502 167.636C114.502 165.812 115.298 164.602 116.781 164.602C118.32 164.602 119.093 165.903 119.093 167.636C119.093 169.386 118.298 170.722 116.781 170.722C115.32 170.722 114.502 169.472 114.502 167.636ZM123.474 175.273C124.877 175.273 125.763 174.54 126.269 173.165L129.877 163.29L128.042 163.273L125.832 170.045H125.741L123.531 163.273H121.712L124.906 172.114L124.695 172.693C124.263 173.852 123.656 173.949 122.724 173.693L122.315 175.085C122.519 175.176 122.962 175.273 123.474 175.273ZM133.143 163.273H131.478V172H133.143V168.375H136.921V172H138.58V163.273H136.921V166.903H133.143V163.273ZM139.771 164.739H142.629V172H144.288V164.739H147.134V163.273H139.771V164.739Z" fill="#1D2936"/>
<g clip-path="url(#clip0_105_308)">
<path d="M117.21 51.8308C114.618 51.8308 113.297 50.6222 112.132 49.5558C111.08 48.5928 110.249 47.8321 108.473 47.8321C106.697 47.8321 105.866 48.5928 104.814 49.5558C103.649 50.6222 102.328 51.8308 99.7354 51.8308C97.1426 51.8308 95.8222 50.6222 94.6571 49.5558C93.6051 48.5928 92.7741 47.8321 90.9982 47.8321C89.2225 47.8321 88.3916 48.5928 87.3396 49.5558C86.1746 50.6222 84.854 51.8308 82.2612 51.8308C79.6688 51.8308 78.3486 50.6222 77.1836 49.5558C76.1318 48.5928 75.3008 47.8321 73.5253 47.8321C71.7496 47.8321 70.9187 48.5928 69.8667 49.5558C68.7017 50.6222 67.3811 51.8308 64.7885 51.8308C62.1957 51.8308 60.8751 50.6222 59.7099 49.5558C58.6579 48.5928 57.827 47.8321 56.0511 47.8321C55.4707 47.8321 55 47.3616 55 46.781C55 46.2006 55.4707 45.7299 56.0511 45.7299C58.6437 45.7299 59.9643 46.9385 61.1295 48.0049C62.1815 48.9679 63.0126 49.7285 64.7885 49.7285C66.5642 49.7285 67.3951 48.9679 68.4471 48.005C69.6121 46.9385 70.9327 45.7299 73.5253 45.7299C76.1177 45.7299 77.4381 46.9387 78.6031 48.005C79.655 48.968 80.4857 49.7285 82.2612 49.7285C84.0371 49.7285 84.8681 48.9679 85.9201 48.005C87.0851 46.9385 88.4056 45.7299 90.9982 45.7299C93.591 45.7299 94.9114 46.9385 96.0766 48.005C97.1286 48.9679 97.9597 49.7285 99.7354 49.7285C101.511 49.7285 102.342 48.9679 103.394 48.005C104.56 46.9385 105.88 45.7299 108.473 45.7299C111.066 45.7299 112.386 46.9385 113.551 48.005C114.603 48.9679 115.434 49.7285 117.21 49.7285C118.987 49.7285 119.818 48.9679 120.87 48.0049C122.035 46.9385 123.356 45.7299 125.949 45.7299C126.529 45.7299 127 46.2006 127 46.781C127 47.3616 126.529 47.8321 125.949 47.8321C124.173 47.8321 123.342 48.5928 122.289 49.5558C121.124 50.6222 119.803 51.8308 117.21 51.8308Z" fill="#F41C31"/>
<path d="M117.21 60.9407C114.618 60.9407 113.297 59.732 112.132 58.6657C111.08 57.7027 110.249 56.942 108.473 56.942C106.697 56.942 105.866 57.7027 104.814 58.6657C103.649 59.732 102.328 60.9407 99.7354 60.9407C97.1426 60.9407 95.8222 59.732 94.6571 58.6657C93.6051 57.7027 92.7741 56.942 90.9982 56.942C89.2225 56.942 88.3916 57.7027 87.3396 58.6657C86.1746 59.732 84.854 60.9407 82.2612 60.9407C79.6688 60.9407 78.3486 59.732 77.1836 58.6657C76.1318 57.7027 75.3008 56.942 73.5253 56.942C71.7496 56.942 70.9187 57.7027 69.8667 58.6657C68.7017 59.732 67.3811 60.9407 64.7885 60.9407C62.1957 60.9407 60.8751 59.732 59.7099 58.6657C58.6579 57.7027 57.827 56.942 56.0511 56.942C55.4707 56.942 55 56.4714 55 55.8909C55 55.3105 55.4707 54.8397 56.0511 54.8397C58.6437 54.8397 59.9643 56.0483 61.1295 57.1147C62.1815 58.0777 63.0126 58.8384 64.7885 58.8384C66.5642 58.8384 67.3951 58.0777 68.4471 57.1149C69.6121 56.0483 70.9327 54.8397 73.5253 54.8397C76.1177 54.8397 77.4381 56.0485 78.6031 57.1149C79.655 58.0779 80.4857 58.8384 82.2612 58.8384C84.0371 58.8384 84.8681 58.0777 85.9201 57.1149C87.0851 56.0483 88.4056 54.8397 90.9982 54.8397C93.591 54.8397 94.9114 56.0483 96.0766 57.1149C97.1286 58.0777 97.9597 58.8384 99.7354 58.8384C101.511 58.8384 102.342 58.0777 103.394 57.1149C104.56 56.0483 105.88 54.8397 108.473 54.8397C111.066 54.8397 112.386 56.0483 113.551 57.1149C114.603 58.0777 115.434 58.8384 117.21 58.8384C118.987 58.8384 119.818 58.0777 120.87 57.1147C122.035 56.0483 123.356 54.8397 125.949 54.8397C126.529 54.8397 127 55.3105 127 55.8909C127 56.4714 126.529 56.942 125.949 56.942C124.173 56.942 123.342 57.7027 122.289 58.6657C121.124 59.732 119.803 60.9407 117.21 60.9407Z" fill="#F41C31"/>
<path d="M117.21 70.0505C114.618 70.0505 113.297 68.8419 112.132 67.7755C111.08 66.8125 110.249 66.0518 108.473 66.0518C106.697 66.0518 105.866 66.8125 104.814 67.7754C103.649 68.8419 102.328 70.0505 99.7354 70.0505C97.1426 70.0505 95.8222 68.8419 94.6571 67.7754C93.6051 66.8125 92.7741 66.0518 90.9982 66.0518C89.2225 66.0518 88.3916 66.8125 87.3396 67.7754C86.1746 68.8419 84.854 70.0505 82.2612 70.0505C79.6688 70.0505 78.3486 68.8419 77.1836 67.7754C76.1318 66.8125 75.3008 66.0518 73.5253 66.0518C71.7496 66.0518 70.9187 66.8125 69.8667 67.7754C68.7017 68.8419 67.3811 70.0505 64.7885 70.0505C62.1957 70.0505 60.8751 68.8419 59.7099 67.7754C58.6579 66.8125 57.8268 66.0518 56.0511 66.0518C55.4707 66.0518 55 65.5811 55 65.0007C55 64.4201 55.4707 63.9496 56.0511 63.9496C58.6437 63.9496 59.9643 65.1582 61.1295 66.2246C62.1815 67.1876 63.0126 67.9483 64.7885 67.9483C66.5642 67.9483 67.3951 67.1876 68.4471 66.2246C69.6121 65.1582 70.9327 63.9496 73.5253 63.9496C76.1177 63.9496 77.4381 65.1582 78.6031 66.2248C79.655 67.1876 80.4857 67.9483 82.2612 67.9483C84.0371 67.9483 84.8681 67.1876 85.9201 66.2246C87.0851 65.1582 88.4056 63.9496 90.9982 63.9496C93.591 63.9496 94.9114 65.1582 96.0766 66.2246C97.1286 67.1876 97.9597 67.9483 99.7354 67.9483C101.511 67.9483 102.342 67.1876 103.394 66.2246C104.56 65.1582 105.88 63.9496 108.473 63.9496C111.066 63.9496 112.386 65.1582 113.551 66.2246C114.603 67.1876 115.434 67.9483 117.21 67.9483C118.987 67.9483 119.818 67.1876 120.87 66.2246C122.035 65.1582 123.356 63.9496 125.949 63.9496C126.529 63.9496 127 64.4201 127 65.0007C127 65.5811 126.529 66.0518 125.949 66.0518C124.173 66.0518 123.342 66.8125 122.289 67.7755C121.124 68.8419 119.803 70.0505 117.21 70.0505Z" fill="#F41C31"/>
<path d="M117.21 79.1604C114.618 79.1604 113.297 77.9518 112.132 76.8854C111.08 75.9224 110.249 75.1617 108.473 75.1617C106.697 75.1617 105.866 75.9224 104.814 76.8852C103.649 77.9518 102.328 79.1604 99.7354 79.1604C97.1426 79.1604 95.8222 77.9518 94.6571 76.8852C93.6051 75.9224 92.7741 75.1617 90.9982 75.1617C89.2225 75.1617 88.3916 75.9224 87.3396 76.8852C86.1746 77.9518 84.854 79.1604 82.2612 79.1604C79.6688 79.1604 78.3486 77.9518 77.1836 76.8852C76.1318 75.9224 75.3008 75.1617 73.5253 75.1617C71.7496 75.1617 70.9187 75.9224 69.8667 76.8852C68.7017 77.9518 67.3811 79.1604 64.7885 79.1604C62.1957 79.1604 60.8751 77.9518 59.7099 76.8852C58.6579 75.9224 57.8268 75.1617 56.0511 75.1617C55.4707 75.1617 55 74.691 55 74.1106C55 73.53 55.4707 73.0594 56.0511 73.0594C58.6437 73.0594 59.9643 74.2681 61.1295 75.3344C62.1815 76.2975 63.0126 77.0581 64.7885 77.0581C66.5642 77.0581 67.3951 76.2975 68.4471 75.3344C69.6121 74.2681 70.9327 73.0594 73.5253 73.0594C76.1177 73.0594 77.4381 74.2681 78.6031 75.3346C79.655 76.2975 80.4857 77.0581 82.2612 77.0581C84.0371 77.0581 84.8681 76.2975 85.9201 75.3344C87.0851 74.2681 88.4056 73.0594 90.9982 73.0594C93.591 73.0594 94.9114 74.2681 96.0766 75.3344C97.1286 76.2975 97.9597 77.0581 99.7354 77.0581C101.511 77.0581 102.342 76.2975 103.394 75.3344C104.56 74.2681 105.88 73.0594 108.473 73.0594C111.066 73.0594 112.386 74.2681 113.551 75.3344C114.603 76.2975 115.434 77.0581 117.21 77.0581C118.987 77.0581 119.818 76.2975 120.87 75.3344C122.035 74.2681 123.356 73.0594 125.949 73.0594C126.529 73.0594 127 73.53 127 74.1106C127 74.691 126.529 75.1617 125.949 75.1617C124.173 75.1617 123.342 75.9224 122.289 76.8854C121.124 77.9518 119.803 79.1604 117.21 79.1604Z" fill="#F41C31"/>
<path d="M117.21 88.2701C114.618 88.2701 113.297 87.0615 112.132 85.9951C111.08 85.0321 110.249 84.2715 108.473 84.2715C106.697 84.2715 105.866 85.0321 104.814 85.995C103.649 87.0615 102.328 88.2701 99.7354 88.2701C97.1426 88.2701 95.8222 87.0615 94.6571 85.995C93.6051 85.0321 92.7741 84.2715 90.9982 84.2715C89.2225 84.2715 88.3916 85.0321 87.3396 85.995C86.1746 87.0615 84.854 88.2701 82.2612 88.2701C79.6688 88.2701 78.3486 87.0615 77.1836 85.995C76.1318 85.0321 75.3008 84.2715 73.5253 84.2715C71.7496 84.2715 70.9187 85.0321 69.8667 85.995C68.7017 87.0615 67.3811 88.2701 64.7885 88.2701C62.1957 88.2701 60.8751 87.0615 59.7099 85.995C58.6579 85.0321 57.8268 84.2715 56.0511 84.2715C55.4707 84.2715 55 83.8007 55 83.2203C55 82.6396 55.4707 82.1692 56.0511 82.1692C58.6437 82.1692 59.9643 83.3778 61.1295 84.4442C62.1815 85.4072 63.0126 86.1679 64.7885 86.1679C66.5642 86.1679 67.3951 85.4072 68.4471 84.4442C69.6121 83.3778 70.9327 82.1692 73.5253 82.1692C76.1177 82.1692 77.4381 83.3778 78.6031 84.4444C79.655 85.4072 80.4857 86.1679 82.2612 86.1679C84.0371 86.1679 84.8681 85.4072 85.9201 84.4442C87.0851 83.3778 88.4056 82.1692 90.9982 82.1692C93.591 82.1692 94.9114 83.3778 96.0766 84.4442C97.1286 85.4072 97.9597 86.1679 99.7354 86.1679C101.511 86.1679 102.342 85.4072 103.394 84.4442C104.56 83.3778 105.88 82.1692 108.473 82.1692C111.066 82.1692 112.386 83.3778 113.551 84.4442C114.603 85.4072 115.434 86.1679 117.21 86.1679C118.987 86.1679 119.818 85.4072 120.87 84.4442C122.035 83.3778 123.356 82.1692 125.949 82.1692C126.529 82.1692 127 82.6396 127 83.2203C127 83.8007 126.529 84.2715 125.949 84.2715C124.173 84.2715 123.342 85.0321 122.289 85.9951C121.124 87.0615 119.803 88.2701 117.21 88.2701Z" fill="#F41C31"/>
</g>
<defs>
<clipPath id="clip0_105_308">
<rect width="72" height="72" fill="white" transform="translate(55 31)"/>
</clipPath>
</defs>
</svg>
