<svg width="183" height="220" viewBox="0 0 183 220" fill="none" xmlns="http://www.w3.org/2000/svg">
<rect width="183" height="220" rx="8" fill="white"/>
<path d="M129 113.5C111.345 132.643 66.3913 120.442 47.3975 102.925C28.4037 85.4072 27.3181 55.6884 44.9727 36.5459C62.6273 17.4033 104.235 3.1843 123.229 20.7017C142.223 38.2191 146.655 94.3574 129 113.5Z" fill="#FFEFEF"/>
<path d="M67.7145 155.182C67.7145 151.46 65.4872 149.205 62.4759 149.205C59.4531 149.205 57.2315 151.46 57.2315 155.182C57.2315 158.898 59.4531 161.159 62.4759 161.159C65.4872 161.159 67.7145 158.903 67.7145 155.182ZM65.9759 155.182C65.9759 158.017 64.4759 159.557 62.4759 159.557C60.4702 159.557 58.9759 158.017 58.9759 155.182C58.9759 152.347 60.4702 150.807 62.4759 150.807C64.4759 150.807 65.9759 152.347 65.9759 155.182ZM76.5 149.023C76.0739 149.364 75.4261 149.364 74.5227 149.358C74.2557 149.358 73.9659 149.358 73.6477 149.364C70.8182 149.42 69.3864 151.432 69.3864 155.42V156.284C69.3864 159.489 70.9773 161.176 73.4148 161.176C75.8523 161.176 77.4318 159.483 77.4318 156.767C77.4318 154.085 75.8807 152.602 73.7784 152.602C72.5114 152.602 71.4545 153.142 70.8864 154.222H70.7784C70.9716 152.011 71.8011 150.915 73.6875 150.858C75.3636 150.807 76.4261 150.812 77.2045 150.097L76.5 149.023ZM73.4205 159.75C71.9773 159.75 71.0966 158.597 71.0966 156.795C71.1193 155.028 71.9886 154.017 73.4034 154.017C74.8409 154.017 75.7159 155.028 75.7159 156.795C75.7159 158.602 74.8409 159.75 73.4205 159.75ZM82.1463 155.273V152.273H78.1122V153.744H80.4815V161H84.294C86.4304 161 87.6236 159.761 87.6236 158.119C87.6236 156.443 86.4304 155.273 84.294 155.273H82.1463ZM82.1463 156.739H84.294C85.2713 156.739 85.9702 157.33 85.9702 158.17C85.9702 158.966 85.2713 159.534 84.294 159.534H82.1463V156.739ZM93.294 161.176C95.1974 161.176 96.544 160.239 96.9304 158.818L95.3224 158.528C95.0156 159.352 94.277 159.773 93.3111 159.773C91.8565 159.773 90.8793 158.83 90.8338 157.148H97.0384V156.545C97.0384 153.392 95.152 152.159 93.1747 152.159C90.7429 152.159 89.1406 154.011 89.1406 156.693C89.1406 159.403 90.7202 161.176 93.294 161.176ZM90.8395 155.875C90.9077 154.636 91.8054 153.562 93.1861 153.562C94.5043 153.562 95.3679 154.54 95.3736 155.875H90.8395ZM98.9233 161H100.622V157.511H101.724L104.355 161H106.463L103.043 156.517L106.423 152.273H104.321L101.44 155.932H100.622V152.273H98.9233V161ZM107.294 153.739H110.152V161H111.811V153.739H114.658V152.273H107.294V153.739ZM118.119 155.273V152.273H116.455V161H120.267C122.403 161 123.597 159.761 123.597 158.119C123.597 156.443 122.403 155.273 120.267 155.273H118.119ZM124.835 161H126.534V152.273H124.835V161ZM118.119 156.739H120.267C121.244 156.739 121.943 157.33 121.943 158.17C121.943 158.966 121.244 159.534 120.267 159.534H118.119V156.739ZM36.4851 180.898L33.7237 174.273H31.5874V183H33.2521V176.653L35.8544 183H37.1158L39.7635 176.676V183H41.4169V174.273H39.3033L36.4851 180.898ZM47.4425 183.176C49.3459 183.176 50.6925 182.239 51.0788 180.818L49.4709 180.528C49.1641 181.352 48.4254 181.773 47.4595 181.773C46.005 181.773 45.0277 180.83 44.9822 179.148H51.1868V178.545C51.1868 175.392 49.3004 174.159 47.3232 174.159C44.8913 174.159 43.2891 176.011 43.2891 178.693C43.2891 181.403 44.8686 183.176 47.4425 183.176ZM44.9879 177.875C45.0561 176.636 45.9538 175.562 47.3345 175.562C48.6527 175.562 49.5163 176.54 49.522 177.875H44.9879ZM52.3018 175.739H55.1598V183H56.8189V175.739H59.6655V174.273H52.3018V175.739ZM61.4624 186.273H63.1612V181.642H63.2635C63.5703 182.199 64.1953 183.17 65.7862 183.17C67.8999 183.17 69.4339 181.477 69.4339 178.653C69.4339 175.824 67.8771 174.159 65.7692 174.159C64.1499 174.159 63.5646 175.148 63.2635 175.688H63.1214V174.273H61.4624V186.273ZM63.1271 178.636C63.1271 176.812 63.9226 175.602 65.4055 175.602C66.9453 175.602 67.718 176.903 67.718 178.636C67.718 180.386 66.9226 181.722 65.4055 181.722C63.9453 181.722 63.1271 180.472 63.1271 178.636ZM75.0135 183.176C77.4737 183.176 79.0817 181.375 79.0817 178.676C79.0817 175.96 77.4737 174.159 75.0135 174.159C72.5533 174.159 70.9453 175.96 70.9453 178.676C70.9453 181.375 72.5533 183.176 75.0135 183.176ZM75.0192 181.75C73.4112 181.75 72.6612 180.347 72.6612 178.67C72.6612 177 73.4112 175.58 75.0192 175.58C76.6158 175.58 77.3658 177 77.3658 178.67C77.3658 180.347 76.6158 181.75 75.0192 181.75ZM80.978 183H82.6314V175.739H86.4325V183H88.0973V174.273H80.978V183ZM94.0447 183.176C96.505 183.176 98.1129 181.375 98.1129 178.676C98.1129 175.96 96.505 174.159 94.0447 174.159C91.5845 174.159 89.9766 175.96 89.9766 178.676C89.9766 181.375 91.5845 183.176 94.0447 183.176ZM94.0504 181.75C92.4425 181.75 91.6925 180.347 91.6925 178.67C91.6925 177 92.4425 175.58 94.0504 175.58C95.647 175.58 96.397 177 96.397 178.67C96.397 180.347 95.647 181.75 94.0504 181.75ZM99.3217 183H99.8672C101.771 183 102.469 181.591 102.606 178.705L102.742 175.739H105.594V183H107.259V174.273H101.168L101.015 178.136C100.907 180.83 100.6 181.528 99.6286 181.528H99.3161L99.3217 183ZM111.19 180.619V174.273H109.525V183H111.371L115.201 176.648V183H116.866V174.273H115.036L111.19 180.619ZM118.067 175.739H120.925V183H122.585V175.739H125.431V174.273H118.067V175.739ZM130.583 183.176C132.487 183.176 133.833 182.239 134.219 180.818L132.612 180.528C132.305 181.352 131.566 181.773 130.6 181.773C129.146 181.773 128.168 180.83 128.123 179.148H134.327V178.545C134.327 175.392 132.441 174.159 130.464 174.159C128.032 174.159 126.43 176.011 126.43 178.693C126.43 181.403 128.009 183.176 130.583 183.176ZM128.129 177.875C128.197 176.636 129.094 175.562 130.475 175.562C131.793 175.562 132.657 176.54 132.663 177.875H128.129ZM137.877 174.273H136.212V183H137.877V179.375H141.656V183H143.315V174.273H141.656V177.903H137.877V174.273ZM148.127 183.193C149.57 183.193 150.383 182.46 150.707 181.807H150.775V183H152.434V177.205C152.434 174.665 150.434 174.159 149.048 174.159C147.468 174.159 146.013 174.795 145.445 176.386L147.042 176.75C147.292 176.131 147.928 175.534 149.07 175.534C150.167 175.534 150.729 176.108 150.729 177.097V177.136C150.729 177.756 150.093 177.744 148.525 177.926C146.871 178.119 145.178 178.551 145.178 180.534C145.178 182.25 146.468 183.193 148.127 183.193ZM148.496 181.83C147.536 181.83 146.843 181.398 146.843 180.557C146.843 179.648 147.65 179.324 148.633 179.193C149.184 179.119 150.491 178.972 150.735 178.727V179.852C150.735 180.886 149.911 181.83 148.496 181.83Z" fill="#1D2936"/>
<path d="M124.655 58.6C124.572 58.2741 124.481 57.9465 124.376 57.5877L124.184 57.0006C124.149 56.8877 124.122 56.7757 124.086 56.6628C123.956 56.2467 123.814 55.8306 123.663 55.4367C123.297 54.4467 122.867 53.4287 122.384 52.4049C122.288 52.2067 122.174 52.0213 122.075 51.8256C121.737 51.1706 121.406 50.5151 121.029 49.8703C120.52 49.0241 120.025 48.2623 119.517 47.5471L119.454 47.4598C119.216 47.122 118.971 46.7981 118.732 46.4797L118.63 46.3449C118.413 46.0677 118.192 45.7912 117.972 45.5255C117.908 45.448 117.847 45.383 117.783 45.3076C117.745 45.2622 117.705 45.2186 117.671 45.1737C117.541 45.0229 117.407 44.863 117.284 44.7238C117.048 44.4523 116.812 44.1816 116.564 43.9204C116.397 43.7457 116.226 43.583 116.049 43.4075C115.899 43.2513 115.745 43.0972 115.587 42.9448C115.415 42.7751 115.25 42.5996 115.075 42.4331C114.817 42.1843 114.544 41.9486 114.288 41.729C114.134 41.5885 113.965 41.4472 113.802 41.3067C113.767 41.2767 113.734 41.2462 113.699 41.2173C113.62 41.151 113.55 41.0855 113.474 41.0171C113.21 40.7988 112.934 40.5804 112.636 40.3419L112.541 40.2706C112.213 40.0312 111.876 39.7795 111.538 39.5372L111.435 39.4689C110.71 38.9559 109.955 38.462 109.115 37.9581C108.312 37.488 107.466 37.0357 106.584 36.6084C105.565 36.1289 104.547 35.7004 103.564 35.3346H103.555L103.452 35.2995C102.452 34.9292 101.434 34.6086 100.401 34.3404C94.8641 32.9331 89.0637 32.9331 83.5266 34.3404C82.4579 34.6165 81.4044 34.9465 80.3699 35.33C79.8755 35.5129 79.3754 35.7115 78.8691 35.9253C78.3631 36.1392 77.8506 36.3678 77.3315 36.6113C76.4639 37.0348 75.6181 37.4868 74.8044 37.9618C73.9915 38.436 73.2298 38.9448 72.5154 39.452L72.3646 39.5591C72.0329 39.7939 71.7075 40.037 71.3939 40.2735L71.2811 40.36C71.0046 40.5849 70.729 40.7975 70.4579 41.0212C70.3767 41.0892 70.3096 41.1518 70.2325 41.2194L70.1337 41.3047C69.9751 41.4406 69.809 41.5811 69.6681 41.7097C69.3958 41.947 69.1235 42.1834 68.8647 42.4311C68.6892 42.5983 68.5277 42.7759 68.3493 42.946C68.1944 43.0989 68.0416 43.2517 67.8883 43.4075C67.7186 43.5793 67.5431 43.7449 67.3766 43.9204C67.1278 44.1804 66.8917 44.4514 66.6721 44.7077C66.5317 44.8606 66.392 45.0286 66.2515 45.1901C66.221 45.2264 66.1897 45.2602 66.1605 45.2964C66.0937 45.3735 66.0278 45.4447 65.9627 45.5214C65.7373 45.7867 65.5227 46.0636 65.2874 46.3614L65.203 46.4739C64.9587 46.8002 64.7082 47.1343 64.4676 47.4742L64.4231 47.5368C63.9114 48.2557 63.4108 49.0175 62.8979 49.8769C62.4175 50.6984 61.9652 51.5455 61.5482 52.4069C61.0687 53.4196 60.6394 54.4409 60.2756 55.421C60.1219 55.8248 59.9802 56.2409 59.8541 56.6418C59.78 56.8667 59.7108 57.0983 59.6424 57.3302L59.5493 57.6169C59.4545 57.9428 59.3631 58.2704 59.272 58.6292L59.0598 59.5516C58.5012 62.0054 58.2177 64.514 58.2148 67.0305C58.2148 67.6649 58.2272 68.3006 58.2733 68.9149C58.3512 70.3906 58.5284 71.8594 58.8036 73.3112C58.8637 73.6767 58.9383 74.0302 59.0079 74.3082C59.045 74.5332 59.0969 74.7478 59.1406 74.9246C59.1913 75.1495 59.2531 75.3745 59.3095 75.5702C59.3791 75.8437 59.4512 76.1181 59.5579 76.4699C59.6449 76.7765 59.7355 77.0888 59.8315 77.3541C60.3498 78.9975 61.0024 80.5952 61.781 82.1319C61.9351 82.4512 62.0991 82.7598 62.2647 83.0646C62.5902 83.6711 62.9395 84.2652 63.291 84.8308C63.4698 85.1299 63.6622 85.4303 63.8533 85.7047C64.049 86.0095 64.255 86.3012 64.4573 86.569C64.9265 87.2319 65.409 87.8627 65.8857 88.4407C66.0995 88.7031 66.3149 88.9651 66.5284 89.2004C67.3931 90.1892 68.3139 91.1285 69.2858 92.0126C70.3211 92.9454 71.4145 93.8122 72.5595 94.6065L70.7966 97.2923C70.3417 97.9823 70.3022 98.8665 70.6936 99.5944C71.0849 100.323 71.8438 100.777 72.6707 100.779H79.9604C80.8713 100.773 81.6904 100.222 82.0385 99.3798L82.3837 98.5295H101.543L101.881 99.374C102.223 100.227 103.052 100.785 103.971 100.779H111.253C112.082 100.781 112.843 100.327 113.237 99.5982C113.63 98.8693 113.591 97.9836 113.136 97.2923L111.374 94.6082C111.655 94.4087 111.936 94.2143 112.217 94.0034C112.515 93.7792 112.805 93.5539 113.095 93.3166C113.276 93.1724 113.46 93.0385 113.64 92.8902C113.977 92.6063 114.324 92.3117 114.652 92.0102C115.616 91.1306 116.529 90.197 117.388 89.2148C117.537 89.0471 117.684 88.8774 117.832 88.7019L118.057 88.4362C118.544 87.833 119.02 87.2072 119.452 86.5946C119.642 86.3428 119.815 86.0919 119.99 85.832L120.023 85.7817C120.034 85.7644 120.049 85.7467 120.06 85.7294C120.104 85.6647 120.14 85.6013 120.182 85.5358L120.27 85.4035C120.39 85.2202 120.507 85.0368 120.623 84.8477C120.986 84.2652 121.334 83.6711 121.659 83.0684C121.825 82.7598 121.989 82.4512 122.136 82.148C122.725 80.982 123.244 79.7827 123.691 78.5554L123.775 78.3103C123.887 77.9922 124 77.6795 124.081 77.3969C124.194 77.0945 124.28 76.7814 124.389 76.3925C124.473 76.1181 124.545 75.8437 124.614 75.5941C124.678 75.3691 124.739 75.1438 124.786 74.9378L124.804 74.8611C124.841 74.7099 124.873 74.5637 124.894 74.445C124.894 74.424 124.905 74.3948 124.908 74.3746C124.993 74.0141 125.066 73.6655 125.122 73.3405C125.398 71.8858 125.576 70.4145 125.656 68.9363C125.703 68.3006 125.715 67.6649 125.715 67.0305C125.714 64.5206 125.434 62.019 124.88 59.5706L124.655 58.6ZM75.2164 88.1799C74.9354 87.9545 74.6589 87.7267 74.3874 87.496C74.1749 87.3135 73.9639 87.1293 73.7575 86.9402C73.4938 86.7004 73.2376 86.4533 72.9846 86.2032C72.7865 86.0075 72.5887 85.811 72.3971 85.6091C72.1499 85.3504 71.9126 85.0826 71.6762 84.8139C71.4949 84.608 71.3132 84.4036 71.1373 84.1931C70.9057 83.9109 70.6874 83.6204 70.4624 83.3304C70.3018 83.1186 70.1357 82.9097 69.9808 82.6922C69.7559 82.3828 69.5524 82.0623 69.3443 81.7438C69.2079 81.5337 69.0654 81.3285 68.9335 81.1151C68.7082 80.7559 68.5104 80.3863 68.3065 80.0159C68.2056 79.8318 68.0956 79.6513 67.9975 79.4635C67.705 78.9011 67.4347 78.3284 67.1764 77.7434C64.7704 72.1717 64.3114 65.9519 65.8745 60.0872C66.1077 59.1726 66.3998 58.2745 66.7479 57.3974C70.7405 46.9382 80.7757 40.0292 91.9711 40.0316C103.166 40.0349 113.198 46.9485 117.185 57.4097C117.533 58.2868 117.823 59.1854 118.056 60.0996C119.615 65.9605 119.155 72.175 116.749 77.7426C114.795 82.2353 111.656 86.1134 107.668 88.9594L105.841 86.1785L105.831 86.1694L105.083 85.0298H105.463C106.067 85.0269 106.645 84.7826 107.068 84.3509C107.491 83.9195 107.723 83.3366 107.713 82.733L106.588 55.7337V55.7243C106.56 48.7687 101.607 46.5596 96.4634 45.9103V44.531C96.4634 43.9101 95.96 43.4062 95.3387 43.4062C94.7174 43.4062 94.2136 43.9101 94.2136 44.531V45.7113C93.4473 45.6734 92.6904 45.6561 91.9637 45.6561C91.2374 45.6561 90.4801 45.6734 89.7138 45.7113V44.531C89.7138 43.9101 89.2104 43.4062 88.5887 43.4062C87.9678 43.4062 87.464 43.9101 87.464 44.531V45.9103C82.324 46.5596 77.3707 48.7687 77.3393 55.7243V55.7337L76.2146 82.78C76.2146 84.0225 77.2219 85.0298 78.4645 85.0298H78.8423L78.0896 86.176L77.5812 86.9526L76.2641 88.9573C76.138 88.8671 76.0086 88.7806 75.8846 88.6887C75.6518 88.5227 75.436 88.3517 75.2164 88.1799ZM86.043 89.53H97.8844L98.799 91.7799H85.1288L86.043 89.53ZM86.9576 87.2801L87.8735 85.0298H96.0543L96.9689 87.2801H86.9576ZM96.8968 82.7948C96.8474 82.7915 96.798 82.7915 96.7485 82.7948L87.2674 82.8117C87.1607 82.7964 87.0524 82.7964 86.9465 82.8117L81.189 82.8216C81.0139 82.7783 80.8305 82.7783 80.6554 82.8216H78.4628L79.5435 56.9059H104.384L105.463 82.78L96.8968 82.7948ZM91.9637 47.906C100.137 47.906 103.805 49.8827 104.28 54.656H79.6432C80.1227 49.8827 83.7907 47.906 91.9637 47.906ZM72.676 98.5295L75.0285 94.9398C75.0512 94.9089 75.0714 94.8768 75.0895 94.843L77.493 91.1858C77.493 91.18 77.5033 91.1779 77.5083 91.1713L79.1134 88.7208L81.535 85.0298H85.4448L84.2616 87.9422C84.2521 87.9615 84.2455 87.9793 84.2377 87.9999L82.4241 92.4658L80.6015 96.94C80.5928 96.9602 80.5846 96.9808 80.5767 97.0006L79.9604 98.5295H72.676ZM83.3016 96.2796L84.2163 94.0297H99.7136L100.628 96.2796H83.3016ZM103.974 98.5295L103.345 96.9829L103.326 96.9544L99.6831 87.9933L99.6642 87.9471L98.4884 85.0298H102.392L111.253 98.5295H103.974ZM123.409 68.7913C123.335 70.183 123.167 71.5689 122.906 72.9388C122.853 73.2437 122.794 73.5473 122.705 73.9152C122.675 74.0775 122.634 74.253 122.592 74.4364C122.551 74.6197 122.501 74.7993 122.444 75.0053C122.38 75.2484 122.317 75.4915 122.234 75.765C122.152 76.0641 122.07 76.3542 121.953 76.6817C121.859 76.9829 121.756 77.2779 121.655 77.5819L121.574 77.8134C121.157 78.9567 120.672 80.0748 120.123 81.1613C119.984 81.4492 119.835 81.7236 119.684 82.0058C119.383 82.5686 119.06 83.1149 118.715 83.6686C118.678 83.7304 118.64 83.7873 118.603 83.8462C118.515 83.9896 118.42 84.1379 118.32 84.2887L118.145 84.5577C117.991 84.7929 117.831 85.022 117.642 85.2737C117.217 85.8736 116.77 86.4619 116.335 87.002L116.123 87.2517C115.989 87.4082 115.858 87.5636 115.709 87.7275C114.898 88.6545 114.034 89.5345 113.122 90.3634C112.699 90.7478 112.254 91.1046 111.811 91.4659C111.367 91.8268 110.911 92.1758 110.46 92.5054L110.143 92.7307L108.906 90.8446C113.26 87.7568 116.686 83.5372 118.816 78.6424C121.421 72.6133 121.921 65.8827 120.236 59.5348C119.98 58.5373 119.663 57.5568 119.285 56.5989C114.961 45.2725 104.096 37.7892 91.9732 37.7867C79.8496 37.7838 68.9817 45.2622 64.653 56.5866C64.274 57.5436 63.9559 58.5237 63.7005 59.5212C60.5516 71.3024 65.0695 83.7976 75.024 90.8405L73.7864 92.7258C72.744 91.9966 71.747 91.2051 70.8011 90.3544C69.8885 89.5217 69.025 88.638 68.2134 87.7078C68.0132 87.4824 67.822 87.2517 67.6263 87.0136C67.1764 86.4722 66.7261 85.888 66.2762 85.2424C66.0908 84.9952 65.9153 84.7484 65.734 84.4654C65.5552 84.2021 65.3863 83.9401 65.2199 83.66C64.8825 83.1178 64.557 82.5641 64.2525 81.9972C64.103 81.7203 63.953 81.4435 63.8026 81.1357C63.0705 79.6901 62.4571 78.1875 61.9689 76.6426C61.8766 76.3855 61.802 76.1202 61.7279 75.8544L61.692 75.7288C61.6187 75.4857 61.5561 75.2426 61.4848 74.9761C61.4345 74.7936 61.3839 74.6131 61.3365 74.4014C61.2973 74.2473 61.259 74.0849 61.2149 73.8468C61.1428 73.5473 61.0802 73.2482 61.0242 72.9095C60.7638 71.5405 60.5965 70.1554 60.5236 68.7641C60.475 68.1902 60.4647 67.611 60.4647 67.0305C60.4664 64.6801 60.7304 62.3371 61.252 60.0456L61.4535 59.1557C61.5853 58.6642 61.7324 58.1715 61.8881 57.6787L62.0002 57.3331C62.1209 56.9532 62.2511 56.5726 62.3747 56.2199C62.7203 55.2884 63.1241 54.3297 63.5732 53.3805C64.3292 51.8133 65.2141 50.312 66.219 48.8914C66.2391 48.8634 66.2581 48.8329 66.2787 48.8049L66.3294 48.7353C66.8155 48.0601 67.3264 47.4021 67.8628 46.7611L67.9872 46.6169C68.4577 46.0656 68.9513 45.5358 69.4588 45.0183C69.6203 44.8535 69.7831 44.6896 69.9483 44.5281C70.4645 44.023 70.9923 43.5298 71.5423 43.0655C71.5917 43.0227 71.6399 42.979 71.691 42.9362C72.3184 42.4072 72.9665 41.9037 73.6347 41.4254C73.6706 41.3994 73.7044 41.3735 73.7406 41.3488C73.7765 41.324 73.8103 41.3014 73.8432 41.2779C75.2543 40.2797 76.7457 39.4005 78.3022 38.6486C79.2617 38.1991 80.2146 37.7949 81.1465 37.4497C82.153 37.0843 83.1451 36.7745 84.0857 36.5268C89.2536 35.2163 94.6676 35.2163 99.8351 36.5268C100.784 36.7745 101.776 37.0896 102.776 37.4481C103.241 37.6207 103.712 37.8081 104.187 38.0112C104.661 38.2135 105.136 38.4236 105.611 38.6465L105.64 38.6609C107.199 39.4149 108.692 40.2965 110.106 41.2973L110.192 41.3554C110.215 41.3714 110.235 41.3891 110.259 41.4048C110.934 41.8893 111.592 42.4002 112.232 42.9374L112.386 43.0713C112.934 43.5389 113.462 44.0304 113.976 44.5334C114.141 44.6962 114.306 44.8597 114.467 45.0249C114.97 45.5379 115.459 46.0619 115.924 46.6078L116.073 46.7788C116.598 47.4083 117.102 48.0572 117.584 48.725C117.607 48.7563 117.63 48.7856 117.652 48.8173L117.713 48.9071C118.715 50.3223 119.597 51.8182 120.351 53.3805C120.801 54.3388 121.207 55.2925 121.556 56.2388L121.564 56.2636C121.688 56.6179 121.812 56.98 121.929 57.3512L122.133 57.9733C122.252 58.3672 122.365 58.7606 122.463 59.1232L122.679 60.0683C123.199 62.3528 123.461 64.6879 123.463 67.0305C123.463 67.611 123.452 68.1902 123.409 68.7913Z" fill="#F41C31"/>
<path d="M98.7133 59.1558H85.2141C83.3499 59.1558 81.8391 60.6665 81.8391 62.5308V68.1552C81.8391 70.0195 83.3499 71.5303 85.2141 71.5303H98.7133C100.578 71.5303 102.089 70.0195 102.089 68.1552V62.5308C102.089 60.6665 100.578 59.1558 98.7133 59.1558ZM84.089 68.1552V62.5308C84.089 61.9091 84.5924 61.4056 85.2141 61.4056H90.8386V69.2804H85.2141C84.5924 69.2804 84.089 68.7769 84.089 68.1552ZM99.8389 68.1552C99.8389 68.7769 99.335 69.2804 98.7133 69.2804H93.0889V61.4056H98.7133C99.335 61.4056 99.8389 61.9091 99.8389 62.5308V68.1552Z" fill="#F41C31"/>
<path d="M85.2141 73.7802C83.3499 73.7802 81.8391 75.2913 81.8391 77.1556C81.8391 79.019 83.3499 80.5302 85.2141 80.5302C87.078 80.5302 88.5887 79.019 88.5887 77.1556C88.5887 75.2913 87.078 73.7802 85.2141 73.7802ZM85.2141 78.2803C84.5924 78.2803 84.089 77.7764 84.089 77.1556C84.089 76.5339 84.5924 76.03 85.2141 76.03C85.8354 76.03 86.3388 76.5339 86.3388 77.1556C86.3388 77.7764 85.8354 78.2803 85.2141 78.2803Z" fill="#F41C31"/>
<path d="M98.7133 73.7802C96.8499 73.7802 95.3387 75.2913 95.3387 77.1556C95.3387 79.019 96.8499 80.5302 98.7133 80.5302C100.578 80.5302 102.089 79.019 102.089 77.1556C102.089 75.2913 100.578 73.7802 98.7133 73.7802ZM98.7133 78.2803C98.0925 78.2803 97.589 77.7764 97.589 77.1556C97.589 76.5339 98.0925 76.03 98.7133 76.03C99.335 76.03 99.8389 76.5339 99.8389 77.1556C99.8389 77.7764 99.335 78.2803 98.7133 78.2803Z" fill="#F41C31"/>
<path d="M89.7139 52.4061H94.2136C94.8353 52.4061 95.3388 51.9023 95.3388 51.2806C95.3388 50.6597 94.8353 50.1562 94.2136 50.1562H89.7139C89.0926 50.1562 88.5887 50.6597 88.5887 51.2806C88.5887 51.9023 89.0926 52.4061 89.7139 52.4061Z" fill="#F41C31"/>
<path d="M69.1923 61.3722L73.6921 62.4969C73.7815 62.5196 73.8725 62.5307 73.964 62.5307C74.5321 62.5291 75.0096 62.106 75.0784 61.5424C75.1476 60.9792 74.7859 60.4522 74.2355 60.3142L69.7357 59.1895C69.3423 59.0816 68.9212 59.1953 68.6353 59.4869C68.3494 59.7778 68.2439 60.2009 68.3593 60.5923C68.4747 60.9841 68.7927 61.2824 69.1911 61.3722H69.1923Z" fill="#F41C31"/>
<path d="M73.4618 70.518L68.9616 72.7678C68.602 72.9475 68.3655 73.3055 68.3412 73.7068C68.3169 74.1085 68.5084 74.492 68.8438 74.7133C69.1796 74.9353 69.6076 74.9613 69.9677 74.7813L74.4674 72.5314C75.0236 72.2541 75.249 71.5776 74.9713 71.0222C74.6932 70.466 74.0176 70.2403 73.4618 70.518Z" fill="#F41C31"/>
<path d="M69.4642 68.1552H71.7141C72.3358 68.1552 72.8396 67.6517 72.8396 67.0304C72.8396 66.4087 72.3358 65.9053 71.7141 65.9053H69.4642C68.8433 65.9053 68.3395 66.4087 68.3395 67.0304C68.3395 67.6517 68.8433 68.1552 69.4642 68.1552Z" fill="#F41C31"/>
<path d="M109.964 62.5307C110.056 62.5307 110.147 62.5196 110.237 62.4969L114.737 61.3722C115.135 61.2824 115.453 60.9841 115.569 60.5923C115.684 60.2009 115.578 59.7778 115.293 59.4869C115.007 59.1953 114.585 59.0816 114.192 59.1895L109.692 60.3142C109.142 60.4522 108.78 60.9792 108.849 61.5424C108.918 62.106 109.395 62.5291 109.964 62.5307Z" fill="#F41C31"/>
<path d="M109.46 72.5429L113.96 74.7928C114.32 74.9724 114.748 74.9469 115.084 74.7248C115.419 74.5032 115.611 74.1192 115.586 73.7179C115.562 73.3166 115.326 72.959 114.966 72.779L110.466 70.5291C109.91 70.2519 109.234 70.4772 108.956 71.033C108.679 71.5892 108.904 72.2652 109.46 72.5429Z" fill="#F41C31"/>
<path d="M114.463 65.9053H112.213C111.592 65.9053 111.088 66.4087 111.088 67.0304C111.088 67.6517 111.592 68.1552 112.213 68.1552H114.463C115.084 68.1552 115.588 67.6517 115.588 67.0304C115.588 66.4087 115.084 65.9053 114.463 65.9053Z" fill="#F41C31"/>
</svg>
