<svg width="183" height="220" viewBox="0 0 183 220" fill="none" xmlns="http://www.w3.org/2000/svg">
<rect width="183" height="220" rx="8" fill="white"/>
<path d="M129 113.5C111.345 132.643 66.3913 120.442 47.3975 102.925C28.4037 85.4072 27.3181 55.6884 44.9727 36.5459C62.6273 17.4033 104.235 3.1843 123.229 20.7017C142.223 38.2191 146.655 94.3574 129 113.5Z" fill="#FFEFEF"/>
<path d="M46.4176 166.182C46.4176 162.46 44.1903 160.205 41.179 160.205C38.1562 160.205 35.9347 162.46 35.9347 166.182C35.9347 169.898 38.1562 172.159 41.179 172.159C44.1903 172.159 46.4176 169.903 46.4176 166.182ZM44.679 166.182C44.679 169.017 43.179 170.557 41.179 170.557C39.1733 170.557 37.679 169.017 37.679 166.182C37.679 163.347 39.1733 161.807 41.179 161.807C43.179 161.807 44.679 163.347 44.679 166.182ZM55.2031 160.023C54.777 160.364 54.1293 160.364 53.2259 160.358C52.9588 160.358 52.669 160.358 52.3509 160.364C49.5213 160.42 48.0895 162.432 48.0895 166.42V167.284C48.0895 170.489 49.6804 172.176 52.1179 172.176C54.5554 172.176 56.1349 170.483 56.1349 167.767C56.1349 165.085 54.5838 163.602 52.4815 163.602C51.2145 163.602 50.1577 164.142 49.5895 165.222H49.4815C49.6747 163.011 50.5043 161.915 52.3906 161.858C54.0668 161.807 55.1293 161.812 55.9077 161.097L55.2031 160.023ZM52.1236 170.75C50.6804 170.75 49.7997 169.597 49.7997 167.795C49.8224 166.028 50.6918 165.017 52.1065 165.017C53.544 165.017 54.419 166.028 54.419 167.795C54.419 169.602 53.544 170.75 52.1236 170.75ZM60.8494 166.273V163.273H56.8153V164.744H59.1847V172H62.9972C65.1335 172 66.3267 170.761 66.3267 169.119C66.3267 167.443 65.1335 166.273 62.9972 166.273H60.8494ZM60.8494 167.739H62.9972C63.9744 167.739 64.6733 168.33 64.6733 169.17C64.6733 169.966 63.9744 170.534 62.9972 170.534H60.8494V167.739ZM71.9972 172.176C73.9006 172.176 75.2472 171.239 75.6335 169.818L74.0256 169.528C73.7188 170.352 72.9801 170.773 72.0142 170.773C70.5597 170.773 69.5824 169.83 69.5369 168.148H75.7415V167.545C75.7415 164.392 73.8551 163.159 71.8778 163.159C69.446 163.159 67.8438 165.011 67.8438 167.693C67.8438 170.403 69.4233 172.176 71.9972 172.176ZM69.5426 166.875C69.6108 165.636 70.5085 164.562 71.8892 164.562C73.2074 164.562 74.071 165.54 74.0767 166.875H69.5426ZM77.6264 172H79.3253V168.511H80.4276L83.0582 172H85.1662L81.7457 167.517L85.1264 163.273H83.0241L80.1435 166.932H79.3253V163.273H77.6264V172ZM85.9972 164.739H88.8551V172H90.5142V164.739H93.3608V163.273H85.9972V164.739ZM96.8224 166.273V163.273H95.1577V172H98.9702C101.107 172 102.3 170.761 102.3 169.119C102.3 167.443 101.107 166.273 98.9702 166.273H96.8224ZM103.538 172H105.237V163.273H103.538V172ZM96.8224 167.739H98.9702C99.9474 167.739 100.646 168.33 100.646 169.17C100.646 169.966 99.9474 170.534 98.9702 170.534H96.8224V167.739ZM111.888 172H113.643V167.909H116.03C118.729 167.909 120.064 166.278 120.064 164.131C120.064 161.989 118.74 160.364 116.036 160.364H111.888V172ZM113.643 166.42V161.869H115.848C117.587 161.869 118.297 162.812 118.297 164.131C118.297 165.449 117.587 166.42 115.871 166.42H113.643ZM129.668 160.364H127.929V165.398H126.582L123.696 160.364H121.548L125.014 165.909L121.287 172H123.315L126.281 167.034H127.929V172H129.668V167.034H131.332L134.259 172H136.31L132.605 165.92L136.06 160.364H133.918L131.054 165.398H129.668V160.364ZM137.148 174.812H138.83V172H146.642V174.795H148.324V170.511H147.006V160.364H139.83L139.557 165.278C139.381 168.517 138.693 169.852 137.915 170.511H137.148V174.812ZM139.983 170.511C140.648 169.449 141.097 167.739 141.239 165.278L141.42 161.875H145.324V170.511H139.983Z" fill="#1D2936"/>
<g clip-path="url(#clip0_105_334)">
<path d="M97.2921 45.7688C98.4074 45.7688 99.3146 44.8615 99.3146 43.7462V40.2891C99.3146 39.1738 98.4072 38.2665 97.2921 38.2665H84.708C83.5927 38.2665 82.6855 39.1738 82.6855 40.2891V43.7462C82.6855 44.8615 83.5929 45.7688 84.708 45.7688H97.2921ZM84.7946 40.3756H97.2056V43.6597H84.7946V40.3756Z" fill="#F41C31"/>
<path d="M68.8569 51.3167V65.5141C68.8569 67.3918 70.3846 68.9194 72.2624 68.9194H109.738C111.616 68.9194 113.143 67.3918 113.143 65.5141V51.3167C113.143 49.4389 111.616 47.9113 109.738 47.9113H107.801C107.219 47.9113 106.746 48.3834 106.746 48.9658C106.746 49.5482 107.219 50.0203 107.801 50.0203H109.738C110.453 50.0203 111.034 50.6019 111.034 51.3167V65.5141C111.034 66.2288 110.453 66.8104 109.738 66.8104H72.2624C71.5476 66.8104 70.966 66.2288 70.966 65.5141V51.3167C70.966 50.6019 71.5476 50.0203 72.2624 50.0203H102.88C103.462 50.0203 103.934 49.5482 103.934 48.9658C103.934 48.3834 103.462 47.9113 102.88 47.9113H72.2624C70.3846 47.9113 68.8569 49.4389 68.8569 51.3167Z" fill="#F41C31"/>
<path d="M119.288 100.253L114.092 91.2533C116.753 90.3509 118.675 87.8305 118.675 84.8681V79.3663C118.675 79.3659 118.675 79.3655 118.675 79.3649V44.426C118.675 38.1505 113.598 33 107.249 33H74.7514C68.4511 33 63.3255 38.1256 63.3255 44.426V68.883C63.3255 69.4654 63.7976 69.9376 64.38 69.9376C64.9624 69.9376 65.4346 69.4654 65.4346 68.883V44.426C65.4346 39.2887 69.6141 35.1091 74.7514 35.1091H107.249C112.4 35.1091 116.565 39.2859 116.565 44.426V78.3118H112.65C112.156 75.7485 109.897 73.8059 107.191 73.8059H74.6135C74.6135 73.8059 74.6135 73.8059 74.6133 73.8059C74.6132 73.8059 74.6132 73.8059 74.613 73.8059C71.9076 73.8059 69.6485 75.7485 69.1543 78.3118H65.4346V73.8042C65.4346 73.2218 64.9624 72.7497 64.38 72.7497C63.7976 72.7497 63.3255 73.2218 63.3255 73.8042V79.3649V79.3663C63.3255 85.4945 63.2983 85.256 63.4187 85.9787C63.8246 88.4274 65.5748 90.4674 67.9075 91.2545L62.7122 100.253C61.84 101.764 62.3594 103.702 63.87 104.575C65.382 105.448 67.316 104.934 68.1917 103.417L69.6901 100.821H112.31L113.809 103.417C114.681 104.928 116.612 105.451 118.13 104.575C119.641 103.702 120.16 101.764 119.288 100.253ZM110.642 79.3663C110.642 81.2688 109.094 82.8173 107.191 82.8175C105.288 82.8173 103.74 81.2691 103.74 79.3663C103.74 77.4632 105.288 75.915 107.191 75.915C109.094 75.915 110.642 77.4632 110.642 79.3663ZM102.834 75.915C101.23 77.9368 101.231 80.7974 102.834 82.8175H78.9698C80.5726 80.7984 80.5736 77.9348 78.9698 75.915H102.834ZM74.6132 75.915C76.5035 75.915 78.0645 77.4521 78.0645 79.3663C78.0645 81.2683 76.515 82.8175 74.6132 82.8175C72.7101 82.8175 71.1619 81.2693 71.1619 79.3663C71.1619 77.4632 72.7101 75.915 74.6132 75.915ZM69.1532 80.4208C69.6533 83.0101 71.9356 84.9239 74.6081 84.9264C74.6098 84.9264 74.6115 84.9266 74.6132 84.9266H74.6135H74.6139H107.191C109.883 84.9266 112.154 82.992 112.651 80.4208H116.566V84.8681C116.566 87.4299 114.478 89.5009 111.933 89.5009H107.601C105.93 89.5009 73.3259 89.5009 70.0674 89.5009C67.6965 89.5009 65.7258 87.7083 65.4648 85.39C65.4242 85.0265 65.4346 85.2758 65.4346 80.421H69.1532V80.4208ZM66.3651 102.362C66.0738 102.867 65.4294 103.04 64.9246 102.748C64.42 102.457 64.2472 101.813 64.5386 101.308L70.1377 91.61H72.573L66.3651 102.362ZM70.9078 98.7124L72.1254 96.6033H109.875L111.092 98.7124H70.9078ZM73.3431 94.4942L75.0083 91.61H106.992L108.657 94.4942H73.3431ZM117.075 102.748C116.572 103.039 115.927 102.868 115.635 102.362L109.427 91.6098H111.862L117.461 101.308C117.753 101.812 117.58 102.457 117.075 102.748Z" fill="#F41C31"/>
</g>
<defs>
<clipPath id="clip0_105_334">
<rect width="72" height="72" fill="white" transform="translate(55 33)"/>
</clipPath>
</defs>
</svg>
