<svg width="183" height="220" viewBox="0 0 183 220" fill="none" xmlns="http://www.w3.org/2000/svg">
<rect width="183" height="220" rx="8" fill="white"/>
<path d="M129 113.5C111.345 132.643 66.3914 120.442 47.3976 102.925C28.4038 85.4072 27.3182 55.6884 44.9728 36.5459C62.6274 17.4033 104.235 3.1843 123.229 20.7017C142.223 38.2191 146.655 94.3574 129 113.5Z" fill="#FFEFEF"/>
<g clip-path="url(#clip0_105_241)">
<path d="M125.593 76.9031C124.818 76.9031 124.186 77.5331 124.186 78.3082C124.186 78.684 124.333 78.9844 124.597 79.2503C124.863 79.5162 125.216 79.6085 125.592 79.6085H125.593C126.368 79.6085 126.998 79.0322 127 78.2566C127 77.4804 126.37 76.9031 125.593 76.9031Z" fill="#F41C31"/>
<path d="M119.968 76.8986L113.577 76.8948L107.894 67.0356L113.954 56.5547C114.206 56.1191 114.206 55.5829 113.955 55.1479L107.915 44.6708L112.073 38.1136C112.489 37.4571 112.295 36.5881 111.638 36.1723C110.982 35.7559 110.113 35.9504 109.697 36.6068L105.503 43.198L93.2983 43.175H93.2978C92.7952 43.175 92.331 43.4573 92.08 43.8918L86.0155 54.3596L74.7644 54.3321L71.8355 48.967C71.5894 48.5143 71.1153 48.2358 70.5989 48.2358C70.3655 48.2358 70.1331 48.2957 69.9266 48.4083C69.597 48.5885 69.3569 48.8857 69.2509 49.2471C69.1444 49.6075 69.185 49.9871 69.3652 50.3177L72.3046 55.695L66.5313 65.6821H56.4068C55.6295 65.6821 55 66.3122 55 67.0889C55 67.8657 55.6295 68.4957 56.4068 68.4957H66.6422L72.2441 78.2252L68.801 83.1888C68.5873 83.4964 68.5055 83.8733 68.572 84.2419C68.6395 84.6121 68.8461 84.9351 69.1542 85.1488C69.3904 85.3136 69.6673 85.4015 69.9546 85.4015C70.416 85.4015 70.8494 85.1768 71.112 84.7983L74.6815 79.6589L86.0106 79.6666L91.6768 89.4955L88.199 95.1041C87.7914 95.7638 87.9952 96.6328 88.6539 97.0409C88.8774 97.1788 89.1334 97.2519 89.3938 97.2519C89.8843 97.2519 90.3331 97.003 90.5908 96.5867L94.1223 90.8881L105.336 90.9078L111.419 101.459C111.68 101.911 112.152 102.163 112.639 102.163C112.877 102.163 113.119 102.102 113.34 101.975C114.013 101.587 114.244 100.726 113.856 100.053L107.818 89.5812L113.524 79.7084L119.967 79.7122C120.742 79.7122 121.372 79.0821 121.373 78.3071C121.373 77.9313 121.227 77.5781 120.961 77.3122C120.697 77.0464 120.343 76.9003 119.968 76.8986ZM94.1086 46.0182L105.449 46.0254L111.113 55.8494L105.467 65.6129L94.1273 65.6058L88.4638 55.7812L94.1086 46.0182ZM85.982 76.8547L74.6897 76.8475L69.0257 67.023L74.7023 57.2062L85.9782 57.2133L91.6504 67.051L85.982 76.8547ZM105.436 88.0673L94.0965 88.0602L88.4567 78.2774L94.1256 68.4726L105.48 68.4798L111.113 78.2499L105.436 88.0673Z" fill="#F41C31"/>
<path d="M67.9062 46.1293H67.9079C68.1413 46.1293 68.3737 46.0601 68.5786 45.9474C68.9093 45.7673 69.1488 45.4662 69.2553 45.1059C69.3608 44.7444 69.3202 44.3627 69.14 44.0336C68.8939 43.5804 68.4198 43.2981 67.9051 43.2981C67.6717 43.2981 67.4382 43.3569 67.2328 43.4706C66.9021 43.6497 66.6615 43.9474 66.556 44.3072C66.4505 44.6686 66.4912 45.057 66.6714 45.386C66.9175 45.8392 67.3915 46.1293 67.9062 46.1293Z" fill="#F41C31"/>
<path d="M67.5492 87.4614C67.3129 87.2966 67.0355 87.2098 66.7472 87.2098C66.2857 87.2098 65.854 87.4362 65.5908 87.8146C65.1492 88.4518 65.3068 89.3297 65.9441 89.7729C66.1803 89.9372 66.4577 90.0245 66.7461 90.0245C67.2075 90.0245 67.6392 89.7982 67.9024 89.4197C68.344 88.7825 68.1864 87.9047 67.5492 87.4614Z" fill="#F41C31"/>
<path d="M87.1724 99.4321C86.9488 99.2943 86.6928 99.2212 86.4325 99.2212C85.9414 99.2212 85.4942 99.4706 85.2355 99.8864C85.0372 100.206 84.9751 100.584 85.0608 100.95C85.1471 101.316 85.3706 101.627 85.6898 101.824C85.9133 101.961 86.1682 102.035 86.4297 102.035C86.9208 102.035 87.3679 101.785 87.6267 101.37C87.825 101.05 87.887 100.673 87.8013 100.307C87.714 99.9413 87.4915 99.631 87.1724 99.4321Z" fill="#F41C31"/>
<path d="M77.745 46.105C77.923 46.2083 78.1295 46.2599 78.3828 46.2599C78.6267 46.2599 78.8541 46.2083 79.0364 46.105C79.2194 46.0018 79.3243 45.8611 79.3243 45.6832V41.6276H82.4191V45.6832C82.4191 45.8611 82.5262 46.0018 82.7048 46.105C82.8828 46.2083 83.1074 46.2599 83.3607 46.2599C83.6046 46.2599 83.8045 46.2083 83.9874 46.105C84.1704 46.0018 84.2478 45.8611 84.2478 45.6832V36.5349C84.2478 36.3475 84.1769 36.2064 83.999 36.1124C83.8204 36.019 83.6139 35.9718 83.3607 35.9718C83.1074 35.9718 82.8778 36.019 82.7004 36.1124C82.5219 36.2064 82.4191 36.3475 82.4191 36.5349V40.2208H79.3248V36.5349C79.3248 36.3475 79.2172 36.2064 79.0392 36.1124C78.8612 36.019 78.636 35.9718 78.3828 35.9718C78.1295 35.9718 77.9274 36.019 77.7494 36.1124C77.5709 36.2064 77.4962 36.3475 77.4962 36.5349V45.6826C77.4956 45.8611 77.5665 46.0018 77.745 46.105Z" fill="#F41C31"/>
<path d="M122.27 61.0234C122.092 60.9294 121.89 60.8822 121.636 60.8822C121.383 60.8822 121.147 60.9294 120.969 61.0234C120.791 61.1168 120.681 61.2579 120.681 61.4453V65.1191H117.586V61.4453C117.586 61.2579 117.489 61.1168 117.311 61.0234C117.132 60.9294 116.912 60.8822 116.659 60.8822C116.405 60.8822 116.197 60.9294 116.018 61.0234C115.84 61.1168 115.758 61.2579 115.758 61.4453V70.593C115.758 70.7715 115.838 70.9122 116.016 71.0154C116.194 71.1187 116.405 71.1704 116.659 71.1704C116.902 71.1704 117.123 71.1187 117.306 71.0154C117.489 70.9122 117.586 70.7715 117.586 70.593V66.5259H120.681V70.5936C120.681 70.7715 120.798 70.9122 120.976 71.0154C121.154 71.1187 121.383 71.1704 121.637 71.1704C121.88 71.1704 122.074 71.1187 122.256 71.0154C122.439 70.9122 122.51 70.7715 122.51 70.5936V61.4453C122.51 61.2579 122.448 61.1168 122.27 61.0234Z" fill="#F41C31"/>
<path d="M61.5116 74.168C61.7648 74.168 61.9752 74.2032 62.1631 74.2735C62.351 74.3438 62.4866 74.4284 62.5806 74.5267C62.6745 74.6256 62.7492 74.7476 62.8107 74.8931C62.8712 75.0387 62.908 75.1557 62.9217 75.2447C62.936 75.3342 62.947 75.4397 62.9563 75.5616C62.9656 75.9462 63.2705 76.1384 63.8709 76.1384C64.1994 76.1384 64.434 76.0753 64.5746 75.9484C64.7152 75.8215 64.7855 75.5847 64.7855 75.2375C64.7855 74.4312 64.4735 73.7835 63.8495 73.2957C63.2255 72.8079 62.4213 72.5635 61.4358 72.5635C60.4695 72.5635 59.7054 72.8244 59.105 73.3446C58.5046 73.8654 58.2239 74.6794 58.2239 75.7863V79.7134C58.2239 80.8202 58.5024 81.6343 59.0984 82.1551C59.6939 82.6753 60.4651 82.9362 61.4319 82.9362C62.4262 82.9362 63.2304 82.6824 63.8544 82.176C64.4785 81.6695 64.7883 80.9938 64.7883 80.1495C64.7883 79.8024 64.7141 79.5656 64.5685 79.4387C64.423 79.3124 64.1857 79.2487 63.8572 79.2487C63.2848 79.2487 62.9843 79.4409 62.9563 79.8254C62.947 80.0226 62.9255 80.1896 62.8931 80.3253C62.8602 80.4615 62.7986 80.6164 62.7097 80.79C62.6207 80.9636 62.4751 81.0971 62.2735 81.191C62.0719 81.285 61.8401 81.3317 61.5396 81.3317C60.5355 81.3317 60.0532 80.7922 60.0532 79.7134V75.7869C60.0526 74.708 60.5261 74.168 61.5116 74.168Z" fill="#F41C31"/>
</g>
<path d="M47.0838 153.148C46.6861 150.659 44.7372 149.205 42.277 149.205C39.2656 149.205 37.044 151.46 37.044 155.182C37.044 158.903 39.2543 161.159 42.277 161.159C44.8338 161.159 46.7031 159.557 47.0838 157.256L45.3111 157.25C45.0099 158.739 43.7599 159.557 42.2884 159.557C40.294 159.557 38.7884 158.028 38.7884 155.182C38.7884 152.358 40.2884 150.807 42.294 150.807C43.777 150.807 45.0213 151.642 45.3111 153.148H47.0838ZM52.7244 161.176C55.1847 161.176 56.7926 159.375 56.7926 156.676C56.7926 153.96 55.1847 152.159 52.7244 152.159C50.2642 152.159 48.6562 153.96 48.6562 156.676C48.6562 159.375 50.2642 161.176 52.7244 161.176ZM52.7301 159.75C51.1222 159.75 50.3722 158.347 50.3722 156.67C50.3722 155 51.1222 153.58 52.7301 153.58C54.3267 153.58 55.0767 155 55.0767 156.67C55.0767 158.347 54.3267 159.75 52.7301 159.75ZM58.6889 161H62.8594C64.7685 161 65.8878 160.034 65.8878 158.648C65.8878 157.352 64.8935 156.557 63.7287 156.42C64.8026 156.216 65.5128 155.625 65.5128 154.602C65.5128 153.17 64.2741 152.273 62.3082 152.273H58.6889V161ZM60.2855 159.58V157.153H62.8594C63.7003 157.153 64.206 157.648 64.206 158.46C64.206 159.153 63.7003 159.58 62.8594 159.58H60.2855ZM60.2855 155.909V153.71H62.3082C63.2741 153.71 63.8594 154.114 63.8594 154.784C63.8594 155.483 63.2798 155.909 62.3253 155.909H60.2855ZM67.7514 164.273H69.4503V159.642H69.5526C69.8594 160.199 70.4844 161.17 72.0753 161.17C74.1889 161.17 75.723 159.477 75.723 156.653C75.723 153.824 74.1662 152.159 72.0582 152.159C70.4389 152.159 69.8537 153.148 69.5526 153.688H69.4105V152.273H67.7514V164.273ZM69.4162 156.636C69.4162 154.812 70.2116 153.602 71.6946 153.602C73.2344 153.602 74.0071 154.903 74.0071 156.636C74.0071 158.386 73.2116 159.722 71.6946 159.722C70.2344 159.722 69.4162 158.472 69.4162 156.636ZM81.3878 161.176C83.2912 161.176 84.6378 160.239 85.0241 158.818L83.4162 158.528C83.1094 159.352 82.3707 159.773 81.4048 159.773C79.9503 159.773 78.973 158.83 78.9276 157.148H85.1321V156.545C85.1321 153.392 83.2457 152.159 81.2685 152.159C78.8366 152.159 77.2344 154.011 77.2344 156.693C77.2344 159.403 78.8139 161.176 81.3878 161.176ZM78.9332 155.875C79.0014 154.636 79.8991 153.562 81.2798 153.562C82.598 153.562 83.4616 154.54 83.4673 155.875H78.9332ZM91.9148 158.898L89.1534 152.273H87.017V161H88.6818V154.653L91.2841 161H92.5455L95.1932 154.676V161H96.8466V152.273H94.733L91.9148 158.898ZM102.872 161.176C104.776 161.176 106.122 160.239 106.509 158.818L104.901 158.528C104.594 159.352 103.855 159.773 102.889 159.773C101.435 159.773 100.457 158.83 100.412 157.148H106.616V156.545C106.616 153.392 104.73 152.159 102.753 152.159C100.321 152.159 98.7188 154.011 98.7188 156.693C98.7188 159.403 100.298 161.176 102.872 161.176ZM100.418 155.875C100.486 154.636 101.384 153.562 102.764 153.562C104.082 153.562 104.946 154.54 104.952 155.875H100.418ZM110.166 152.273H108.501V161H110.166V157.375H113.945V161H115.604V152.273H113.945V155.903H110.166V152.273ZM119.541 152.273H117.876V161H119.541V157.375H123.32V161H124.979V152.273H123.32V155.903H119.541V152.273ZM128.916 155.273V152.273H127.251V161H131.064C133.2 161 134.393 159.761 134.393 158.119C134.393 156.443 133.2 155.273 131.064 155.273H128.916ZM135.632 161H137.331V152.273H135.632V161ZM128.916 156.739H131.064C132.041 156.739 132.74 157.33 132.74 158.17C132.74 158.966 132.041 159.534 131.064 159.534H128.916V156.739ZM143.372 161.176C145.276 161.176 146.622 160.239 147.009 158.818L145.401 158.528C145.094 159.352 144.355 159.773 143.389 159.773C141.935 159.773 140.957 158.83 140.912 157.148H147.116V156.545C147.116 153.392 145.23 152.159 143.253 152.159C140.821 152.159 139.219 154.011 139.219 156.693C139.219 159.403 140.798 161.176 143.372 161.176ZM140.918 155.875C140.986 154.636 141.884 153.562 143.264 153.562C144.582 153.562 145.446 154.54 145.452 155.875H140.918ZM53.6648 180.898L50.9034 174.273H48.767V183H50.4318V176.653L53.0341 183H54.2955L56.9432 176.676V183H58.5966V174.273H56.483L53.6648 180.898ZM63.4006 183.193C64.8438 183.193 65.6562 182.46 65.9801 181.807H66.0483V183H67.7074V177.205C67.7074 174.665 65.7074 174.159 64.321 174.159C62.7415 174.159 61.2869 174.795 60.7188 176.386L62.3153 176.75C62.5653 176.131 63.2017 175.534 64.3438 175.534C65.4403 175.534 66.0028 176.108 66.0028 177.097V177.136C66.0028 177.756 65.3665 177.744 63.7983 177.926C62.1449 178.119 60.4517 178.551 60.4517 180.534C60.4517 182.25 61.7415 183.193 63.4006 183.193ZM63.7699 181.83C62.8097 181.83 62.1165 181.398 62.1165 180.557C62.1165 179.648 62.9233 179.324 63.9062 179.193C64.4574 179.119 65.7642 178.972 66.0085 178.727V179.852C66.0085 180.886 65.1847 181.83 63.7699 181.83ZM68.8878 175.739H71.7457V183H73.4048V175.739H76.2514V174.273H68.8878V175.739ZM81.4034 183.176C83.3068 183.176 84.6534 182.239 85.0398 180.818L83.4318 180.528C83.125 181.352 82.3864 181.773 81.4205 181.773C79.9659 181.773 78.9886 180.83 78.9432 179.148H85.1477V178.545C85.1477 175.392 83.2614 174.159 81.2841 174.159C78.8523 174.159 77.25 176.011 77.25 178.693C77.25 181.403 78.8295 183.176 81.4034 183.176ZM78.9489 177.875C79.017 176.636 79.9148 175.562 81.2955 175.562C82.6136 175.562 83.4773 176.54 83.483 177.875H78.9489ZM87.0327 186.273H88.7315V181.642H88.8338C89.1406 182.199 89.7656 183.17 91.3565 183.17C93.4702 183.17 95.0043 181.477 95.0043 178.653C95.0043 175.824 93.4474 174.159 91.3395 174.159C89.7202 174.159 89.1349 175.148 88.8338 175.688H88.6918V174.273H87.0327V186.273ZM88.6974 178.636C88.6974 176.812 89.4929 175.602 90.9759 175.602C92.5156 175.602 93.2884 176.903 93.2884 178.636C93.2884 180.386 92.4929 181.722 90.9759 181.722C89.5156 181.722 88.6974 180.472 88.6974 178.636ZM98.5724 180.619V174.273H96.9077V183H98.7543L102.584 176.648V183H104.249V174.273H102.419L98.5724 180.619ZM109.072 183.193C110.516 183.193 111.328 182.46 111.652 181.807H111.72V183H113.379V177.205C113.379 174.665 111.379 174.159 109.993 174.159C108.413 174.159 106.959 174.795 106.391 176.386L107.987 176.75C108.237 176.131 108.874 175.534 110.016 175.534C111.112 175.534 111.675 176.108 111.675 177.097V177.136C111.675 177.756 111.038 177.744 109.47 177.926C107.817 178.119 106.124 178.551 106.124 180.534C106.124 182.25 107.413 183.193 109.072 183.193ZM109.442 181.83C108.482 181.83 107.788 181.398 107.788 180.557C107.788 179.648 108.595 179.324 109.578 179.193C110.129 179.119 111.436 178.972 111.68 178.727V179.852C111.68 180.886 110.857 181.83 109.442 181.83ZM114.955 183H115.5C117.403 183 118.102 181.591 118.239 178.705L118.375 175.739H121.227V183H122.892V174.273H116.801L116.648 178.136C116.54 180.83 116.233 181.528 115.261 181.528H114.949L114.955 183ZM126.822 177.273V174.273H125.158V183H128.97C131.107 183 132.3 181.761 132.3 180.119C132.3 178.443 131.107 177.273 128.97 177.273H126.822ZM133.538 183H135.237V174.273H133.538V183ZM126.822 178.739H128.97C129.947 178.739 130.646 179.33 130.646 180.17C130.646 180.966 129.947 181.534 128.97 181.534H126.822V178.739Z" fill="#1D2936"/>
<defs>
<clipPath id="clip0_105_241">
<rect width="72" height="72" fill="white" transform="translate(55 33)"/>
</clipPath>
</defs>
</svg>
